<?xml version="1.0" encoding="UTF-8" standalone="no"?>
<svg xmlns:rdf="http://www.w3.org/1999/02/22-rdf-syntax-ns#" xmlns="http://www.w3.org/2000/svg" height="32" width="32" version="1.1" xmlns:cc="http://creativecommons.org/ns#" xmlns:dc="http://purl.org/dc/elements/1.1/">
<g stroke-linejoin="round" transform="matrix(.76546 0 0 .76449 -2.7433 -28.265)" stroke="#000" stroke-linecap="round" stroke-width="1.9609" fill="none">
<path d="m35.629 46.524-0.21207-1.895c-0.15282-1.3655-1.2671-2.0681-2.3265-1.5995l-12.217 5.4038-0.41421-2.4454c-0.229-1.354-1.267-2.068-2.326-1.599l-9.2966 4.112c-1.0594 0.468-1.7276 1.936-1.4981 3.291l0.82843 4.8908 1.864 11.004 0.82843 4.8908c0.22948 1.3547 1.2671 2.0681 2.3265 1.5995"/>
<path d="m40.155 44.535c1.1454-0.50465 1.9852-0.12161 1.8831 0.85882l-0.36891 3.5395-0.83003 7.9638-0.3689 3.5395c-0.10219 0.98044-1.1066 2.176-2.252 2.6807l-25.327 11.159c-1.1454 0.50465-1.9852 0.12162-1.8831-0.85882l1.1989-11.503c0.10219-0.98043 1.1066-2.176 2.252-2.6807l13.209-5.8195 0.18445-1.7697c0.10219-0.98043 1.1066-2.176 2.252-2.6807l10.051-4.4283z"/>
</g>
</svg>
