<svg xmlns="http://www.w3.org/2000/svg" xmlns:xlink="http://www.w3.org/1999/xlink" xmlns:lucid="lucid" width="925.57" height="453.17"><g transform="translate(-3721.2297281126903 -4495.962832796207)" lucid:page-tab-id="0_0"><path d="M3721.23 4517.96a22 22 0 0 1 22-22h881.58a22 22 0 0 1 22 22v409.18a22 22 0 0 1-22 22h-881.57a22 22 0 0 1-22-22z" stroke="#000" stroke-opacity="0" stroke-width="3" fill="#fff"/><path d="M4318.15 4886.34a3.62 3.62 0 0 0 3.2 5.3h67.04a3.62 3.62 0 0 0 3.18-5.3l-33.9-64.2a3.17 3.17 0 0 0-5.6 0z" fill="#cfe4ff"/><path d="M4333.08 4891.65h10.06m6.7 0h10.06m6.7 0h10.05m6.7 0h5.04l.73-.08.7-.22.65-.37.56-.5.44-.58.32-.67.17-.73.02-.74-.14-.73-.28-.7-2.03-3.84m-2.7-5.15l-4.08-7.7m-2.72-5.14l-4.07-7.7m-2.7-5.13l-4.08-7.7m-2.7-5.14l-4.08-7.7m-2.72-5.14l-2.03-3.87-.38-.56-.5-.48-.6-.36-.65-.22-.68-.08-.68.08-.66.22-.6.35-.5.47-.37.56-2.04 3.86m-2.7 5.12l-4.08 7.7m-2.72 5.15l-4.06 7.7m-2.72 5.14l-4.07 7.7m-2.7 5.15l-4.08 7.7m-2.7 5.14l-2.05 3.84-.28.7-.13.72.02.74.18.73.3.67.46.6.56.48.64.37.7.22.75.08h5.03" stroke="#1071e5" stroke-width="3" fill="none"/><use xlink:href="#a" transform="matrix(1,0,0,1,4319.300833368938,4820.569582658679) translate(12.653148148148146 61.343333333333334)"/><path d="M4128.9 4731.12a3.62 3.62 0 0 0 3.2 5.3h67.03a3.62 3.62 0 0 0 3.2-5.3l-33.9-64.2a3.17 3.17 0 0 0-5.62 0z" fill="#cfe4ff"/><path d="M4143.82 4736.43h10.06m6.7 0h10.06m6.7 0h10.06m6.7 0h5.03l.74-.08.7-.22.65-.37.56-.5.45-.58.3-.67.2-.72v-.74l-.12-.73-.27-.68-2.04-3.85m-2.72-5.14l-4.07-7.7m-2.7-5.14l-4.07-7.7m-2.7-5.15l-4.1-7.7m-2.7-5.14l-4.07-7.7m-2.7-5.13l-2.05-3.86-.37-.55-.5-.48-.6-.35-.64-.22-.7-.07-.67.07-.65.22-.6.35-.5.48-.37.56-2.03 3.87m-2.7 5.13l-4.08 7.7m-2.72 5.14l-4.07 7.7m-2.7 5.15l-4.07 7.7m-2.72 5.13l-4.06 7.7m-2.7 5.14l-2.04 3.85-.28.7-.13.72v.74l.18.73.32.68.44.6.56.48.65.37.7.22.74.08h5.02" stroke="#1071e5" stroke-width="3" fill="none"/><use xlink:href="#a" transform="matrix(1,0,0,1,4130.0453393676635,4665.349623356542) translate(12.653148148148146 61.343333333333334)"/><path d="M4354.87 4736.22v65.23" stroke="#1071e5" stroke-width="3" stroke-linejoin="round" fill="none"/><path d="M4354.85 4734.72l1.5-.08v1.6l-2.96.02v-1.65z" stroke="#1071e5" stroke-width=".05" fill="#1071e5"/><path d="M4354.87 4815.94l-7.5-13h15z" stroke="#1071e5" stroke-width="3" fill="#1071e5"/><path d="M4354.78 4736.2l-.02.18-.08.54-.1.54-.13.54-.15.54-.18.55-.2.54-.24.56-.27.57-.3.58-.34.6-.4.62-.43.64-.5.68-.6.7-.64.72-.77.77-.87.82-1 .86-1.2.94-1.4 1.02-1.66 1.1-2.03 1.23-2.48 1.36-3.1 1.55-4 1.77-5.28 2.08-7.35 2.55-11.1 3.33-21 5.32-74.45 17.27-11.1 3.33-7.36 2.55-5.28 2.08-4 1.77-3.1 1.54-2.47 1.36-2 1.23-1.7 1.1-.98.72" stroke="#1071e5" stroke-width="3" stroke-linejoin="round" fill="none"/><path d="M4354.85 4734.72l1.5-.1-.04 1.67-2.94-.08.04-1.6z" stroke="#1071e5" stroke-width=".05" fill="#1071e5"/><path d="M4167.2 4814.7l.52-15 12.72 7.94z" stroke="#1071e5" stroke-width="3" fill="#1071e5"/><path d="M3976.27 4735.73v.07l-.1.52-.1.5-.1.52-.15.5-.17.53-.2.52-.2.52-.27.54-.3.56-.32.57-.37.57-.43.6-.48.64-.56.67-.62.7-.72.73-.83.78-.96.83-1.12.9-1.34.97-1.6 1.05-1.92 1.17-2.36 1.3-2.96 1.46-3.8 1.68-5.02 1.98-6.96 2.4-10.4 3.14-18.68 4.74-81.7 18.55-10.4 3.12-6.96 2.4-5.02 2-3.8 1.68-2.96 1.47-2.37 1.3-1.92 1.16-1.6 1.06-.2.16" stroke="#1071e5" stroke-width="3" stroke-linejoin="round" fill="none"/><path d="M3976.34 4734.24l1.5-.08-.04 1.65-2.95-.05.03-1.62z" stroke="#1071e5" stroke-width=".05" fill="#1071e5"/><path d="M3788.74 4811.85l.83-14.97 12.56 8.2z" stroke="#1071e5" stroke-width="3" fill="#1071e5"/><path d="M4165.73 4594.02l.02.13.08.4.1.4.1.4.14.42.15.42.18.4.2.44.23.44.26.46.3.47.33.5.4.5.43.54.5.56.6.6.66.62.78.67.92.72 1.08.8 1.3.85 1.58.95 1.94 1.07 2.42 1.2 3.1 1.36 4.08 1.62 5.6 1.93 8.1 2.45 13.1 3.34 32 6.62 59.63 11.84 13.1 3.34 8.12 2.43 5.6 1.94 4.07 1.6 3.1 1.4 2.42 1.2 1.94 1.05.13.08" stroke="#1071e5" stroke-width="3" stroke-linejoin="round" fill="none"/><path d="M4165.6 4592.52l1.5-.08.02 1.6-2.95.05-.03-1.68z" stroke="#1071e5" stroke-width=".05" fill="#1071e5"/><path d="M4353 4660.96l-13.92-5.56 11.78-9.28z" stroke="#1071e5" stroke-width="3" fill="#1071e5"/><path d="M3914 4843.92a16 16 0 0 1 16-16h92.7a16 16 0 0 1 16 16v20.64a16 16 0 0 1-16 16H3930a16 16 0 0 1-16-16z" stroke="#1071e5" stroke-width="3" fill="#cfe4ff"/><use xlink:href="#b" transform="matrix(1,0,0,1,3920.2481898812234,4830.5478482788285) translate(13.238888888888894 29.8)"/><path d="M3976.36 4735.74v73.2" stroke="#1071e5" stroke-width="3" stroke-linejoin="round" fill="none"/><path d="M3976.34 4734.24l1.5-.08v1.62h-2.96v-1.65z" stroke="#1071e5" stroke-width=".05" fill="#1071e5"/><path d="M3976.36 4823.42l-7.5-13h15z" stroke="#1071e5" stroke-width="3" fill="#1071e5"/><path d="M4199.8 4556.83c0 18.88-15.3 34.2-34.2 34.2-18.87 0-34.18-15.32-34.18-34.2 0-18.9 15.3-34.2 34.2-34.2 18.88 0 34.2 15.3 34.2 34.2z" stroke="#1071e5" stroke-width="3" fill="#cfe4ff"/><use xlink:href="#c" transform="matrix(1,0,0,1,4134.836642450155,4526.050674903567) translate(18.727222222222224 36.3)"/><use xlink:href="#d" transform="matrix(1,0,0,1,4134.836642450155,4526.050674903567) translate(34.61611111111111 36.3)"/><path d="M4130.1 4842.33a7.24 7.24 0 0 1 2.13-5.13l16.35-16.35a7.24 7.24 0 0 1 5.12-2.12h23.82a7.24 7.24 0 0 1 5.13 2.12l16.35 16.35a7.24 7.24 0 0 1 2.12 5.13v23.82a7.24 7.24 0 0 1-2.12 5.12l-16.35 16.35a7.24 7.24 0 0 1-5.13 2.12h-23.82a7.24 7.24 0 0 1-5.12-2.12l-16.35-16.35a7.24 7.24 0 0 1-2.12-5.12z" stroke="#1071e5" stroke-width="3" fill="#cfe4ff"/><use xlink:href="#e" transform="matrix(1,0,0,1,4133.657942083744,4822.283570079443) translate(5.819444444444446 36.8)"/><path d="M4165.5 4594.02l-.02.1-.08.4-.1.4-.1.4-.14.4-.15.42-.16.42-.2.42-.23.44-.25.45-.3.46-.33.48-.38.52-.44.52-.5.56-.57.58-.66.63-.78.67-.92.72-1.07.77-1.28.85-1.55.95-1.92 1.05-2.4 1.18-3.06 1.37-4.05 1.6-5.52 1.9-8 2.4-12.9 3.3-30.37 6.3-62.5 12.33-12.9 3.3-8.02 2.4-5.52 1.9-4.04 1.6-3.06 1.36-2.4 1.2-1.87 1" stroke="#1071e5" stroke-width="3" stroke-linejoin="round" fill="none"/><path d="M4165.6 4592.52l1.5-.08-.05 1.65-2.95-.07.04-1.6z" stroke="#1071e5" stroke-width=".05" fill="#1071e5"/><path d="M3978.22 4660.5l2.22-14.84 11.74 9.34z" stroke="#1071e5" stroke-width="3" fill="#1071e5"/><path d="M4389.06 4699.02c0 18.88-15.3 34.2-34.2 34.2-18.88 0-34.2-15.32-34.2-34.2 0-18.9 15.32-34.2 34.2-34.2 18.9 0 34.2 15.3 34.2 34.2z" stroke="#1071e5" stroke-width="3" fill="#cfe4ff"/><use xlink:href="#c" transform="matrix(1,0,0,1,4324.09213645143,4668.2423111437165) translate(18.727222222222224 36.3)"/><use xlink:href="#d" transform="matrix(1,0,0,1,4324.09213645143,4668.2423111437165) translate(34.61611111111111 36.3)"/><path d="M4010.55 4698.54c0 18.9-15.3 34.2-34.2 34.2-18.88 0-34.2-15.3-34.2-34.2 0-18.9 15.32-34.2 34.2-34.2 18.9 0 34.2 15.3 34.2 34.2z" stroke="#1071e5" stroke-width="3" fill="#cfe4ff"/><use xlink:href="#c" transform="matrix(1,0,0,1,3945.58114844888,4667.764448835195) translate(18.727222222222224 36.3)"/><use xlink:href="#d" transform="matrix(1,0,0,1,3945.58114844888,4667.764448835195) translate(34.61611111111111 36.3)"/><path d="M4165.6 4594.02v52.2" stroke="#1071e5" stroke-width="3" stroke-linejoin="round" fill="none"/><path d="M4165.6 4592.52l1.5-.08v1.62h-2.96v-1.64z" stroke="#1071e5" stroke-width=".05" fill="#1071e5"/><path d="M4165.6 4660.72l-7.5-13h15z" stroke="#1071e5" stroke-width="3" fill="#1071e5"/><path d="M3778.62 4819.4a12 12 0 0 1 16.97 0l26.7 26.7a12 12 0 0 1 0 16.97l-26.7 26.72a12 12 0 0 1-16.98 0l-26.72-26.73a12 12 0 0 1 0-16.97z" stroke="#1071e5" stroke-width="3" fill="#cfe4ff"/><use xlink:href="#f" transform="matrix(1,0,0,1,3747.781687116388,4815.269731144773) translate(25.535555555555554 45.4875)"/><path d="M4385.48 4766.83v63.32" stroke="#008573" stroke-width="3" stroke-linejoin="round" fill="none"/><path d="M4385.47 4765.33l1.48-.08v1.62h-2.94v-1.65z" stroke="#008573" stroke-width=".05" fill="#008573"/><path d="M4385.48 4844.64l-7.5-13h15z" stroke="#008573" stroke-width="3" fill="#008573"/><path d="M4196.34 4624.63l.02.14.08.4.1.4.1.4.14.42.15.4.18.42.2.43.24.45.27.45.3.47.34.5.4.5.43.53.5.56.6.6.66.63.78.68.93.73 1.1.8 1.3.85 1.56.96 1.93 1.06 2.42 1.2 3.1 1.38 4.08 1.6 5.6 1.94 8.1 2.44 13.1 3.34 32 6.63 59.64 11.84 13.1 3.34 8.1 2.44 5.6 1.94 4.08 1.6 3.1 1.4 2.43 1.2 1.93 1.05.15.08" stroke="#008573" stroke-width="3" stroke-linejoin="round" fill="none"/><path d="M4196.2 4623.14l1.5-.08.03 1.58-2.95.07-.03-1.67z" stroke="#008573" stroke-width=".05" fill="#008573"/><path d="M4383.62 4691.58l-13.93-5.57 11.78-9.27z" stroke="#008573" stroke-width="3" fill="#008573"/><path d="M3944.63 4874.53a16 16 0 0 1 16-16h92.68a16 16 0 0 1 16 16v20.64a16 16 0 0 1-16 16h-92.67a16 16 0 0 1-16-16z" stroke="#008573" stroke-width="3" fill="#b8f5ed"/><use xlink:href="#b" transform="matrix(1,0,0,1,3950.860440191412,4861.160098589017) translate(13.238888888888894 29.8)"/><path d="M4006.97 4766.35v73.2" stroke="#008573" stroke-width="3" stroke-linejoin="round" fill="none"/><path d="M4006.95 4764.85l1.5-.08v1.62h-2.96v-1.66z" stroke="#008573" stroke-width=".05" fill="#008573"/><path d="M4006.97 4854.03l-7.5-13h15z" stroke="#008573" stroke-width="3" fill="#008573"/><path d="M4230.42 4587.44c0 18.88-15.3 34.2-34.2 34.2-18.88 0-34.2-15.32-34.2-34.2 0-18.9 15.32-34.2 34.2-34.2 18.9 0 34.2 15.3 34.2 34.2z" stroke="#008573" stroke-width="3" fill="#b8f5ed"/><use xlink:href="#c" transform="matrix(1,0,0,1,4165.448892760343,4556.662925213755) translate(18.727222222222224 36.3)"/><use xlink:href="#d" transform="matrix(1,0,0,1,4165.448892760343,4556.662925213755) translate(34.61611111111111 36.3)"/><path d="M4385.57 4766.82v.04l.08.5.1.5.1.5.15.5.17.52.2.5.2.53.26.54.28.54.34.56.36.58.42.6.47.6.52.66.62.7.7.7.82.77.95.82 1.1.87 1.33.95 1.56 1.03 1.9 1.15 2.3 1.28 2.93 1.44 3.73 1.66 4.93 1.94 6.8 2.37 10.18 3.05 18 4.58 84.06 18.93 10.16 3.06 6.83 2.35 4.93 1.95 3.73 1.66 2.9 1.44 2.33 1.28 1.9 1.14 1.52 1" stroke="#008573" stroke-width="3" stroke-linejoin="round" fill="none"/><path d="M4385.47 4765.33l1.48-.08.04 1.6-2.96.05-.04-1.68z" stroke="#008573" stroke-width=".05" fill="#008573"/><path d="M4573.08 4842.13l-13.43-6.68 12.5-8.3z" stroke="#008573" stroke-width="3" fill="#008573"/><path d="M4196.1 4624.63v.1l-.1.4-.08.4-.1.4-.14.4-.16.42-.17.42-.2.43-.23.43-.26.45-.3.47-.33.48-.38.5-.43.52-.5.56-.58.6-.66.62-.78.66-.9.72-1.08.78-1.28.86-1.56.94-1.92 1.05-2.4 1.2-3.06 1.35-4.04 1.6-5.52 1.9-8 2.4-12.9 3.3-30.37 6.3-62.5 12.34-12.9 3.28-8.02 2.4-5.52 1.92-4.03 1.6-3.07 1.35-2.4 1.2-1.87 1.02" stroke="#008573" stroke-width="3" stroke-linejoin="round" fill="none"/><path d="M4196.2 4623.14l1.5-.08-.03 1.65-2.95-.06.03-1.6z" stroke="#008573" stroke-width=".05" fill="#008573"/><path d="M4008.84 4691.1l2.2-14.83 11.75 9.34z" stroke="#008573" stroke-width="3" fill="#008573"/><path d="M4419.68 4729.63c0 18.9-15.3 34.2-34.2 34.2-18.88 0-34.2-15.3-34.2-34.2 0-18.9 15.32-34.2 34.2-34.2 18.9 0 34.2 15.3 34.2 34.2z" stroke="#008573" stroke-width="3" fill="#b8f5ed"/><use xlink:href="#c" transform="matrix(1,0,0,1,4354.7043867616185,4698.854561453905) translate(18.727222222222224 36.3)"/><use xlink:href="#d" transform="matrix(1,0,0,1,4354.7043867616185,4698.854561453905) translate(34.61611111111111 36.3)"/><path d="M4041.16 4729.15c0 18.9-15.3 34.2-34.2 34.2-18.88 0-34.2-15.3-34.2-34.2 0-18.88 15.32-34.2 34.2-34.2 18.9 0 34.2 15.32 34.2 34.2z" stroke="#008573" stroke-width="3" fill="#b8f5ed"/><use xlink:href="#c" transform="matrix(1,0,0,1,3976.1933987590687,4698.376699145384) translate(18.727222222222224 36.3)"/><use xlink:href="#d" transform="matrix(1,0,0,1,3976.1933987590687,4698.376699145384) translate(34.61611111111111 36.3)"/><path d="M4196.23 4624.64v49.05" stroke="#008573" stroke-width="3" stroke-linejoin="round" fill="none"/><path d="M4196.2 4623.14l1.5-.08v1.62h-2.95v-1.65z" stroke="#008573" stroke-width=".05" fill="#008573"/><path d="M4196.23 4688.18l-7.5-13h15z" stroke="#008573" stroke-width="3" fill="#008573"/><path d="M4566.25 4849.65a12 12 0 0 1 16.97 0l26.72 26.72a12 12 0 0 1 0 16.97l-26.72 26.7a12 12 0 0 1-16.97 0l-26.72-26.7a12 12 0 0 1 0-16.98z" stroke="#008573" stroke-width="3" fill="#b8f5ed"/><use xlink:href="#g" transform="matrix(1,0,0,1,4535.415913431676,4845.530553424826) translate(24.56055555555556 45.4875)"/><path d="M4187.74 4696.2a12 12 0 0 1 16.97 0l26.73 26.7a12 12 0 0 1 0 16.98l-26.72 26.72a12 12 0 0 1-16.96 0l-26.72-26.72a12 12 0 0 1 0-16.97z" stroke="#008573" stroke-width="3" fill="#b8f5ed"/><use xlink:href="#h" transform="matrix(1,0,0,1,4156.904925429126,4692.078107136339) translate(24.56055555555556 45.4875)"/><path d="M4348.76 4915.05a3.62 3.62 0 0 0 3.2 5.3H4419a3.62 3.62 0 0 0 3.2-5.3l-33.92-64.2a3.17 3.17 0 0 0-5.6 0z" fill="#b8f5ed"/><path d="M4363.7 4920.35h10.05m6.7 0h10.06m6.7 0h10.07m6.7 0h5.03l.74-.07.7-.23.65-.36.55-.5.45-.6.3-.67.18-.72.02-.73-.13-.73-.27-.7-2.04-3.84m-2.7-5.14l-4.08-7.7m-2.7-5.14l-4.08-7.7m-2.72-5.14l-4.07-7.7m-2.7-5.14l-4.07-7.7m-2.7-5.15l-2.05-3.86-.38-.57-.5-.47-.6-.35-.64-.22-.68-.08-.68.08-.65.22-.6.35-.5.47-.37.57-2.04 3.85m-2.7 5.13l-4.08 7.7m-2.7 5.14l-4.08 7.7m-2.72 5.14l-4.07 7.72m-2.72 5.14l-4.07 7.7m-2.7 5.14l-2.04 3.85-.27.7-.15.72.03.74.17.73.3.67.46.6.57.5.65.35.7.23.74.07h5.03" stroke="#008573" stroke-width="3" fill="none"/><use xlink:href="#a" transform="matrix(1,0,0,1,4349.913083679126,4849.2774025013505) translate(12.653148148148146 61.343333333333334)"/><path d="M3904.1 4656a6 6 0 0 1 6-6h37.68a6 6 0 0 1 6 6v16.68a6 6 0 0 1-6 6h-37.68a6 6 0 0 1-6-6z" fill="none"/><use xlink:href="#i" transform="matrix(1,0,0,1,3909.099714479523,4654.999214330224) translate(0 12.61111111111111)"/><use xlink:href="#j" transform="matrix(1,0,0,1,3909.099714479523,4654.999214330224) translate(19.833333333333336 12.61111111111111)"/><path d="M4094 4672.76a6 6 0 0 1 6-6h37.68a6 6 0 0 1 6 6v35.34a6 6 0 0 1-6 6H4100a6 6 0 0 1-6-6z" fill="none"/><use xlink:href="#i" transform="matrix(1,0,0,1,4099.000019186554,4671.758373338842) translate(0 12.777777777777775)"/><use xlink:href="#k" transform="matrix(1,0,0,1,4099.000019186554,4671.758373338842) translate(19.833333333333336 12.777777777777775)"/><use xlink:href="#l" transform="matrix(1,0,0,1,4099.000019186554,4671.758373338842) translate(0 31.444444444444446)"/><use xlink:href="#m" transform="matrix(1,0,0,1,4099.000019186554,4671.758373338842) translate(18.10493827160494 31.444444444444446)"/><path d="M4270.76 4672.76a6 6 0 0 1 6-6h37.68a6 6 0 0 1 6 6v16.68a6 6 0 0 1-6 6h-37.68a6 6 0 0 1-6-6z" fill="none"/><use xlink:href="#i" transform="matrix(1,0,0,1,4275.760647980567,4671.758373338842) translate(0 12.61111111111111)"/><use xlink:href="#j" transform="matrix(1,0,0,1,4275.760647980567,4671.758373338842) translate(19.833333333333336 12.61111111111111)"/><path d="M4279.1 4820.1a6 6 0 0 1 6-6h37.7a6 6 0 0 1 6 6v35.33a6 6 0 0 1-6 6h-37.7a6 6 0 0 1-6-6z" fill="none"/><g><use xlink:href="#i" transform="matrix(1,0,0,1,4284.113712014122,4819.090859856167) translate(0 12.777777777777775)"/><use xlink:href="#n" transform="matrix(1,0,0,1,4284.113712014122,4819.090859856167) translate(19.833333333333336 12.777777777777775)"/><use xlink:href="#o" transform="matrix(1,0,0,1,4284.113712014122,4819.090859856167) translate(0 31.444444444444446)"/><use xlink:href="#p" transform="matrix(1,0,0,1,4284.113712014122,4819.090859856167) translate(18.10493827160494 31.444444444444446)"/></g><path d="M3861.22 4823.84a6 6 0 0 1 6-6h37.67a6 6 0 0 1 6 6v35.34a6 6 0 0 1-6 6h-37.68a6 6 0 0 1-6-6z" fill="none"/><g><use xlink:href="#i" transform="matrix(1,0,0,1,3866.2157966201357,4822.838823222929) translate(0 12.777777777777775)"/><use xlink:href="#k" transform="matrix(1,0,0,1,3866.2157966201357,4822.838823222929) translate(19.833333333333336 12.777777777777775)"/><use xlink:href="#q" transform="matrix(1,0,0,1,3866.2157966201357,4822.838823222929) translate(0 31.444444444444446)"/><use xlink:href="#j" transform="matrix(1,0,0,1,3866.2157966201357,4822.838823222929) translate(18.10493827160494 31.444444444444446)"/></g><path d="M3727.8 4805.24a6 6 0 0 1 6-6h38.5a6 6 0 0 1 6 6v16.68a6 6 0 0 1-6 6h-38.5a6 6 0 0 1-6-6z" fill="none"/><g><use xlink:href="#r" transform="matrix(1,0,0,1,3732.7886640045244,4804.238946589651) translate(0 12.61111111111111)"/><use xlink:href="#s" transform="matrix(1,0,0,1,3732.7886640045244,4804.238946589651) translate(19.833333333333336 12.61111111111111)"/></g><path d="M4093.18 4805.24a6 6 0 0 1 6-6h38.5a6 6 0 0 1 6 6v16.68a6 6 0 0 1-6 6h-38.5a6 6 0 0 1-6-6z" fill="none"/><g><use xlink:href="#r" transform="matrix(1,0,0,1,4098.179031532232,4804.238946589651) translate(0 12.61111111111111)"/><use xlink:href="#s" transform="matrix(1,0,0,1,4098.179031532232,4804.238946589651) translate(19.833333333333336 12.61111111111111)"/></g><path d="M4497.65 4847.16a6 6 0 0 1 6-6h37.68a6 6 0 0 1 6 6v16.68a6 6 0 0 1-6 6h-37.68a6 6 0 0 1-6-6z" fill="none"/><g><use xlink:href="#t" transform="matrix(1,0,0,1,4502.653986500672,4846.161702272961) translate(0 12.61111111111111)"/><use xlink:href="#m" transform="matrix(1,0,0,1,4502.653986500672,4846.161702272961) translate(19.833333333333336 12.61111111111111)"/></g><defs><path d="M190 0L58-211 59 0H30v-248h39L202-35l-2-213h31V0h-41" id="u"/><path d="M84 4C-5 8 30-112 23-190h32v120c0 31 7 50 39 49 72-2 45-101 50-169h31l1 190h-30c-1-10 1-25-2-33-11 22-28 36-60 37" id="v"/><path d="M24 0v-261h32V0H24" id="w"/><g id="a"><use transform="matrix(0.07407407407407408,0,0,0.07407407407407408,0,0)" xlink:href="#u"/><use transform="matrix(0.07407407407407408,0,0,0.07407407407407408,19.185185185185187,0)" xlink:href="#v"/><use transform="matrix(0.07407407407407408,0,0,0.07407407407407408,34,0)" xlink:href="#w"/><use transform="matrix(0.07407407407407408,0,0,0.07407407407407408,39.851851851851855,0)" xlink:href="#w"/></g><path d="M100-194c63 0 86 42 84 106H49c0 40 14 67 53 68 26 1 43-12 49-29l28 8c-11 28-37 45-77 45C44 4 14-33 15-96c1-61 26-98 85-98zm52 81c6-60-76-77-97-28-3 7-6 17-6 28h103" id="x"/><path d="M100-194c62-1 85 37 85 99 1 63-27 99-86 99S16-35 15-95c0-66 28-99 85-99zM99-20c44 1 53-31 53-75 0-43-8-75-51-75s-53 32-53 75 10 74 51 75" id="y"/><path d="M115-194c55 1 70 41 70 98S169 2 115 4C84 4 66-9 55-30l1 105H24l-1-265h31l2 30c10-21 28-34 59-34zm-8 174c40 0 45-34 45-75s-6-73-45-74c-42 0-51 32-51 76 0 43 10 73 51 73" id="z"/><path d="M141-36C126-15 110 5 73 4 37 3 15-17 15-53c-1-64 63-63 125-63 3-35-9-54-41-54-24 1-41 7-42 31l-33-3c5-37 33-52 76-52 45 0 72 20 72 64v82c-1 20 7 32 28 27v20c-31 9-61-2-59-35zM48-53c0 20 12 33 32 33 41-3 63-29 60-74-43 2-92-5-92 41" id="A"/><path d="M114-163C36-179 61-72 57 0H25l-1-190h30c1 12-1 29 2 39 6-27 23-49 58-41v29" id="B"/><path d="M85-194c31 0 48 13 60 33l-1-100h32l1 261h-30c-2-10 0-23-3-31C134-8 116 4 85 4 32 4 16-35 15-94c0-66 23-100 70-100zm9 24c-40 0-46 34-46 75 0 40 6 74 45 74 42 0 51-32 51-76 0-42-9-74-50-73" id="C"/><g id="b"><use transform="matrix(0.07222222222222222,0,0,0.07222222222222222,0,0)" xlink:href="#w"/><use transform="matrix(0.07222222222222222,0,0,0.07222222222222222,5.705555555555555,0)" xlink:href="#x"/><use transform="matrix(0.07222222222222222,0,0,0.07222222222222222,20.15,0)" xlink:href="#y"/><use transform="matrix(0.07222222222222222,0,0,0.07222222222222222,34.59444444444444,0)" xlink:href="#z"/><use transform="matrix(0.07222222222222222,0,0,0.07222222222222222,49.038888888888884,0)" xlink:href="#A"/><use transform="matrix(0.07222222222222222,0,0,0.07222222222222222,63.48333333333333,0)" xlink:href="#B"/><use transform="matrix(0.07222222222222222,0,0,0.07222222222222222,72.07777777777777,0)" xlink:href="#C"/></g><path d="M39-94c74 12-11 154 75 146v23c-44 4-70-10-70-52C44-23 55-84 6-82v-22c81 4-7-162 84-157h24v23c-82-15-2 131-75 144" id="D"/><use transform="matrix(0.07222222222222222,0,0,0.07222222222222222,0,0)" xlink:href="#D" id="c"/><path d="M76-40C78 24 84 88 6 75V52C86 64 9-79 80-94c-40-6-34-59-34-106 1-29-11-41-40-38v-23c44-4 70 10 70 52 0 47-12 108 38 105v22c-26 1-39 14-38 42" id="E"/><use transform="matrix(0.07222222222222222,0,0,0.07222222222222222,0,0)" xlink:href="#E" id="d"/><path d="M127-220V0H93v-220H8v-28h204v28h-85" id="F"/><g id="e"><use transform="matrix(0.07222222222222222,0,0,0.07222222222222222,0,0)" xlink:href="#F"/><use transform="matrix(0.07222222222222222,0,0,0.07222222222222222,14.877777777777776,0)" xlink:href="#B"/><use transform="matrix(0.07222222222222222,0,0,0.07222222222222222,23.47222222222222,0)" xlink:href="#v"/><use transform="matrix(0.07222222222222222,0,0,0.07222222222222222,37.916666666666664,0)" xlink:href="#x"/></g><path d="M27 0v-27h64v-190l-56 39v-29l58-41h29v221h61V0H27" id="G"/><g id="f"><use transform="matrix(0.07222222222222222,0,0,0.07222222222222222,0,0)" xlink:href="#G"/><use transform="matrix(0.07222222222222222,0,0,0.07222222222222222,12.494444444444444,0)" xlink:href="#G"/></g><path d="M110-160c48 1 74 30 74 79 0 53-28 85-80 85-65 0-83-55-86-122-5-90 50-162 133-122 14 7 22 21 27 39l-31 6c-5-40-67-38-82-6-9 19-15 44-15 74 11-20 30-34 60-33zm-7 138c34 0 49-23 49-58s-16-56-50-56c-29 0-50 16-49 49 1 36 15 65 50 65" id="H"/><g id="g"><use transform="matrix(0.07222222222222222,0,0,0.07222222222222222,0,0)" xlink:href="#G"/><use transform="matrix(0.07222222222222222,0,0,0.07222222222222222,14.444444444444443,0)" xlink:href="#H"/></g><path d="M101-251c82-7 93 87 43 132L82-64C71-53 59-42 53-27h129V0H18c2-99 128-94 128-182 0-28-16-43-45-43s-46 15-49 41l-32-3c6-41 34-60 81-64" id="I"/><path d="M101-251c68 0 85 55 85 127S166 4 100 4C33 4 14-52 14-124c0-73 17-127 87-127zm-1 229c47 0 54-49 54-102s-4-102-53-102c-51 0-55 48-55 102 0 53 5 102 54 102" id="J"/><g id="h"><use transform="matrix(0.07222222222222222,0,0,0.07222222222222222,0,0)" xlink:href="#I"/><use transform="matrix(0.07222222222222222,0,0,0.07222222222222222,14.444444444444443,0)" xlink:href="#J"/></g><path fill="#54c45e" d="M175 0L67-191c6 58 2 128 3 191H24v-248h59L193-55c-6-58-2-129-3-193h46V0h-61" id="K"/><path fill="#54c45e" d="M24 0v-54h51V0H24" id="L"/><g id="i"><use transform="matrix(0.04320987654320988,0,0,0.04320987654320988,0,0)" xlink:href="#K"/><use transform="matrix(0.04320987654320988,0,0,0.04320987654320988,11.19135802469136,0)" xlink:href="#L"/></g><path fill="#54c45e" d="M136-208V0H84v-208H4v-40h212v40h-80" id="M"/><path fill="#54c45e" d="M24-248c93 1 206-16 204 79-1 75-69 88-152 82V0H24v-248zm52 121c47 0 100 7 100-41 0-47-54-39-100-39v80" id="N"/><g id="j"><use transform="matrix(0.04320987654320988,0,0,0.04320987654320988,0,0)" xlink:href="#M"/><use transform="matrix(0.04320987654320988,0,0,0.04320987654320988,9.462962962962964,0)" xlink:href="#N"/></g><g id="k"><use transform="matrix(0.04320987654320988,0,0,0.04320987654320988,0,0)" xlink:href="#M"/><use transform="matrix(0.04320987654320988,0,0,0.04320987654320988,9.462962962962964,0)" xlink:href="#N"/></g><path fill="#e81313" d="M24 0v-248h52v208h133V0H24" id="O"/><path fill="#e81313" d="M24 0v-54h51V0H24" id="P"/><g id="l"><use transform="matrix(0.04320987654320988,0,0,0.04320987654320988,0,0)" xlink:href="#O"/><use transform="matrix(0.04320987654320988,0,0,0.04320987654320988,9.462962962962964,0)" xlink:href="#P"/></g><path fill="#e81313" d="M76-208v77h127v40H76V0H24v-248h183v40H76" id="Q"/><path fill="#e81313" d="M24-248c93 1 206-16 204 79-1 75-69 88-152 82V0H24v-248zm52 121c47 0 100 7 100-41 0-47-54-39-100-39v80" id="R"/><g id="m"><use transform="matrix(0.04320987654320988,0,0,0.04320987654320988,0,0)" xlink:href="#Q"/><use transform="matrix(0.04320987654320988,0,0,0.04320987654320988,9.462962962962964,0)" xlink:href="#R"/></g><g id="n"><use transform="matrix(0.04320987654320988,0,0,0.04320987654320988,0,0)" xlink:href="#M"/><use transform="matrix(0.04320987654320988,0,0,0.04320987654320988,9.462962962962964,0)" xlink:href="#N"/></g><path fill="#54c45e" d="M24 0v-248h52v208h133V0H24" id="S"/><g id="o"><use transform="matrix(0.04320987654320988,0,0,0.04320987654320988,0,0)" xlink:href="#S"/><use transform="matrix(0.04320987654320988,0,0,0.04320987654320988,9.462962962962964,0)" xlink:href="#L"/></g><g id="p"><use transform="matrix(0.04320987654320988,0,0,0.04320987654320988,0,0)" xlink:href="#M"/><use transform="matrix(0.04320987654320988,0,0,0.04320987654320988,9.462962962962964,0)" xlink:href="#K"/></g><g id="q"><use transform="matrix(0.04320987654320988,0,0,0.04320987654320988,0,0)" xlink:href="#S"/><use transform="matrix(0.04320987654320988,0,0,0.04320987654320988,9.462962962962964,0)" xlink:href="#L"/></g><path fill="#fc9432" d="M175 0L67-191c6 58 2 128 3 191H24v-248h59L193-55c-6-58-2-129-3-193h46V0h-61" id="T"/><path fill="#fc9432" d="M24 0v-54h51V0H24" id="U"/><g id="r"><use transform="matrix(0.04320987654320988,0,0,0.04320987654320988,0,0)" xlink:href="#T"/><use transform="matrix(0.04320987654320988,0,0,0.04320987654320988,11.19135802469136,0)" xlink:href="#U"/></g><path fill="#fc9432" d="M76-208v77h127v40H76V0H24v-248h183v40H76" id="V"/><g id="s"><use transform="matrix(0.04320987654320988,0,0,0.04320987654320988,0,0)" xlink:href="#V"/><use transform="matrix(0.04320987654320988,0,0,0.04320987654320988,9.462962962962964,0)" xlink:href="#T"/></g><path fill="#e81313" d="M175 0L67-191c6 58 2 128 3 191H24v-248h59L193-55c-6-58-2-129-3-193h46V0h-61" id="W"/><g id="t"><use transform="matrix(0.04320987654320988,0,0,0.04320987654320988,0,0)" xlink:href="#W"/><use transform="matrix(0.04320987654320988,0,0,0.04320987654320988,11.19135802469136,0)" xlink:href="#P"/></g></defs></g></svg>
