<svg xmlns="http://www.w3.org/2000/svg" xmlns:xlink="http://www.w3.org/1999/xlink" xmlns:lucid="lucid" width="1142.09" height="683.85"><g transform="translate(-4256.1839216932985 -2235.0758793884597)" lucid:page-tab-id="0_0"><path d="M4256.18 2257.08a22 22 0 0 1 22-22h1098.1a22 22 0 0 1 22 22v639.85a22 22 0 0 1-22 22h-1098.1a22 22 0 0 1-22-22z" stroke="#000" stroke-opacity="0" stroke-width="3" fill="#fff"/><path d="M4986.9 2473.45v65.18" stroke="#1071e5" stroke-width="3" stroke-linejoin="round" fill="none"/><path d="M4986.9 2471.95l1.48-.08v1.62h-2.95v-1.66z" stroke="#1071e5" stroke-width=".05" fill="#1071e5"/><path d="M4986.9 2553.12l-7.5-13h15z" stroke="#1071e5" stroke-width="3" fill="#1071e5"/><path d="M4608.3 2472.97v.07l-.08.5-.1.52-.12.5-.14.52-.17.52-.2.52-.23.53-.25.55-.3.55-.32.57-.37.58-.42.6-.47.64-.55.66-.63.7-.7.73-.84.78-.95.84-1.13.9-1.34.96-1.6 1.06-1.92 1.16-2.36 1.3-2.97 1.47-3.8 1.67-5 1.98-6.97 2.42-10.4 3.12-18.68 4.73-81.7 18.55-10.4 3.12-6.96 2.4-5.02 2-3.8 1.68-2.96 1.47-2.37 1.3-1.92 1.16-1.6 1.07-.22.16" stroke="#1071e5" stroke-width="3" stroke-linejoin="round" fill="none"/><path d="M4608.38 2471.47l1.5-.08-.04 1.64-2.95-.06.02-1.62z" stroke="#1071e5" stroke-width=".05" fill="#1071e5"/><path d="M4420.78 2549.1l.83-15 12.56 8.2z" stroke="#1071e5" stroke-width="3" fill="#1071e5"/><path d="M4797.77 2331.25l.02.13.06.4.1.4.1.4.14.43.16.42.18.42.2.43.23.45.26.45.3.47.34.5.4.5.43.53.5.56.58.6.68.62.78.68.92.72 1.08.8 1.3.85 1.58.96 1.94 1.06 2.42 1.2 3.1 1.38 4.08 1.6 5.6 1.94 8.1 2.44 13.1 3.34 32 6.63 59.63 11.84 13.1 3.33 8.1 2.43 5.6 1.94 4.08 1.6 3.1 1.4 2.42 1.2 1.94 1.05.13.08" stroke="#1071e5" stroke-width="3" stroke-linejoin="round" fill="none"/><path d="M4797.64 2329.76l1.48-.1.04 1.6-2.95.06-.03-1.67z" stroke="#1071e5" stroke-width=".05" fill="#1071e5"/><path d="M4985.05 2398.2l-13.93-5.57 11.78-9.28z" stroke="#1071e5" stroke-width="3" fill="#1071e5"/><path d="M4313.7 2750.85a16 16 0 0 1 16-16h92.68a16 16 0 0 1 16 16v20.64a16 16 0 0 1-16 16h-92.7a16 16 0 0 1-16-16z" stroke="#1071e5" stroke-width="3" fill="#cfe4ff"/><use xlink:href="#a" transform="matrix(1,0,0,1,4319.926978090251,2737.4777810342734) translate(39.16666666666667 29.8)"/><path d="M4608.4 2472.97v65.3" stroke="#1071e5" stroke-width="3" stroke-linejoin="round" fill="none"/><path d="M4608.38 2471.47l1.5-.08v1.6h-2.96v-1.64z" stroke="#1071e5" stroke-width=".05" fill="#1071e5"/><path d="M4608.4 2552.77l-7.5-13h15z" stroke="#1071e5" stroke-width="3" fill="#1071e5"/><path d="M4608.33 2628.67l-.07.73-.1.73-.15.73-.16.72-.2.73-.24.74-.28.74-.3.75-.37.77-.4.78-.47.8-.53.82-.6.85-.66.9-.78.9-.87 1-1 1-1.16 1.1-1.36 1.15-1.57 1.25-1.85 1.34-2.22 1.46-2.67 1.62-3.3 1.8-4.1 2.04-5.3 2.35-7.04 2.78-9.9 3.43-15.27 4.58-33.5 8.45-72.92 17.55-15.28 4.6-9.88 3.4-7.04 2.8-5.3 2.34-4.1 2.03-3.3 1.8-2.67 1.62-2.22 1.47-1.84 1.34-1.57 1.25-1.36 1.17-1.02.96" stroke="#1071e5" stroke-width="3" stroke-linejoin="round" fill="none"/><path d="M4608.38 2627.17l1.5-.08-.04 1.64-2.95-.06.02-1.62z" stroke="#1071e5" stroke-width=".05" fill="#1071e5"/><path d="M4377.34 2730.64l-1.12-14.95 13.5 6.5z" stroke="#1071e5" stroke-width="3" fill="#1071e5"/><path d="M4831.85 2294.06c0 18.88-15.3 34.2-34.2 34.2-18.88 0-34.2-15.32-34.2-34.2 0-18.9 15.32-34.2 34.2-34.2 18.9 0 34.2 15.3 34.2 34.2z" stroke="#1071e5" stroke-width="3" fill="#cfe4ff"/><use xlink:href="#b" transform="matrix(1,0,0,1,4766.875177127212,2263.2816178465187) translate(18.727222222222224 36.3)"/><use xlink:href="#c" transform="matrix(1,0,0,1,4766.875177127212,2263.2816178465187) translate(34.61611111111111 36.3)"/><path d="M4987 2473.44v.04l.08.5.1.5.1.5.15.5.16.5.2.53.2.53.26.53.28.54.32.56.37.58.4.6.48.6.55.66.62.68.7.72.8.77.96.8 1.1.9 1.32.94 1.57 1.05 1.9 1.15 2.32 1.28 2.9 1.44 3.74 1.65 4.94 1.95 6.82 2.37 10.17 3.04 18.02 4.58 84.04 18.93 10.17 3.06 6.82 2.37 4.94 1.95 3.72 1.66 2.9 1.44 2.34 1.27 1.9 1.14 1.5 1" stroke="#1071e5" stroke-width="3" stroke-linejoin="round" fill="none"/><path d="M4986.9 2471.95l1.48-.08.03 1.6-2.94.05-.03-1.68z" stroke="#1071e5" stroke-width=".05" fill="#1071e5"/><path d="M5174.5 2548.75l-13.43-6.68 12.5-8.3z" stroke="#1071e5" stroke-width="3" fill="#1071e5"/><path d="M4952.7 2749.26a7.24 7.24 0 0 1 2.13-5.13l16.35-16.35a7.24 7.24 0 0 1 5.12-2.12h23.83a7.24 7.24 0 0 1 5.12 2.12l16.35 16.36a7.24 7.24 0 0 1 2.12 5.12v23.82a7.24 7.24 0 0 1-2.12 5.12l-16.35 16.35a7.24 7.24 0 0 1-5.12 2.12h-23.83a7.24 7.24 0 0 1-5.12-2.12l-16.35-16.35a7.24 7.24 0 0 1-2.12-5.12z" stroke="#1071e5" stroke-width="3" fill="#cfe4ff"/><use xlink:href="#d" transform="matrix(1,0,0,1,4956.261637835865,2729.213502834888) translate(5.819444444444446 36.8)"/><path d="M4986.93 2629.02l1.05 77.65" stroke="#1071e5" stroke-width="3" stroke-linejoin="round" fill="none"/><path d="M4986.9 2627.52l1.48-.08.02 1.6-2.95.04-.02-1.67z" stroke="#1071e5" stroke-width=".05" fill="#1071e5"/><path d="M4988.18 2721.16l-7.68-12.88 15-.2z" stroke="#1071e5" stroke-width="3" fill="#1071e5"/><path d="M4680.1 2734.85c13.86 0 25.1 11.24 25.1 25.1 0 13.87-11.24 25.1-25.1 25.1h-143.4c-13.87 0-25.1-11.23-25.1-25.1 0-13.86 11.23-25.1 25.1-25.1z" stroke="#1071e5" stroke-width="3" fill="#cfe4ff"/><use xlink:href="#e" transform="matrix(1,0,0,1,4521.267872259678,2737.356120263234) translate(8.055555555555557 29.425)"/><use xlink:href="#f" transform="matrix(1,0,0,1,4521.267872259678,2737.356120263234) translate(51.388888888888886 29.425)"/><use xlink:href="#g" transform="matrix(1,0,0,1,4521.267872259678,2737.356120263234) translate(94.72222222222221 29.425)"/><use xlink:href="#h" transform="matrix(1,0,0,1,4521.267872259678,2737.356120263234) translate(138.05555555555554 29.425)"/><path d="M4608.4 2628.67v87.18" stroke="#1071e5" stroke-width="3" stroke-linejoin="round" fill="none"/><path d="M4608.38 2627.17l1.5-.08v1.6h-2.96v-1.64z" stroke="#1071e5" stroke-width=".05" fill="#1071e5"/><path d="M4608.4 2730.35l-7.5-13h15z" stroke="#1071e5" stroke-width="3" fill="#1071e5"/><path d="M4797.53 2331.25v.1l-.1.4-.08.4-.12.4-.13.4-.15.42-.17.42-.2.4-.23.45-.26.45-.3.46-.34.5-.38.5-.44.5-.5.57-.57.58-.67.64-.77.66-.9.72-1.08.78-1.3.86-1.55.94-1.9 1.05-2.4 1.18-3.07 1.37-4.04 1.6-5.53 1.9-8 2.4-12.9 3.3-30.37 6.3-62.5 12.33-12.9 3.3-8.02 2.4-5.52 1.9-4.04 1.6-3.06 1.36-2.4 1.18-1.87 1.03" stroke="#1071e5" stroke-width="3" stroke-linejoin="round" fill="none"/><path d="M4797.64 2329.76l1.5-.1-.05 1.66-2.96-.06.04-1.6z" stroke="#1071e5" stroke-width=".05" fill="#1071e5"/><path d="M4610.26 2397.73l2.22-14.84 11.74 9.33z" stroke="#1071e5" stroke-width="3" fill="#1071e5"/><path d="M4986.96 2629.02l.02.32.1.9.13.86.17.87.2.87.25.86.28.87.32.88.37.88.4.9.5.9.53.93.6.96.7 1 .77 1 .88 1.07 1 1.1 1.14 1.17 1.32 1.23 1.52 1.3 1.78 1.42 2.1 1.52 2.5 1.66 3.02 1.83 3.73 2.05 4.7 2.33 6.16 2.75 8.5 3.35 13 4.5 88.76 26.77 8.5 3.35 6.14 2.73 4.72 2.33 3.73 2.05 3.03 1.83 2.5 1.66 2.1 1.52 1.78 1.4 1.53 1.32 1.32 1.24 1.14 1.16.77.87" stroke="#1071e5" stroke-width="3" stroke-linejoin="round" fill="none"/><path d="M4986.9 2627.52l1.48-.08.03 1.6-2.94.05-.03-1.7z" stroke="#1071e5" stroke-width=".05" fill="#1071e5"/><path d="M5175.02 2730.57l-11.87-9.17 13.88-5.7z" stroke="#1071e5" stroke-width="3" fill="#1071e5"/><path d="M5021.1 2436.25c0 18.88-15.3 34.2-34.2 34.2-18.88 0-34.2-15.32-34.2-34.2 0-18.9 15.32-34.2 34.2-34.2 18.9 0 34.2 15.3 34.2 34.2z" stroke="#1071e5" stroke-width="3" fill="#cfe4ff"/><use xlink:href="#b" transform="matrix(1,0,0,1,4956.130671128487,2405.4732540866694) translate(18.727222222222224 36.3)"/><use xlink:href="#c" transform="matrix(1,0,0,1,4956.130671128487,2405.4732540866694) translate(34.61611111111111 36.3)"/><path d="M4642.6 2435.77c0 18.9-15.32 34.2-34.2 34.2-18.9 0-34.2-15.3-34.2-34.2 0-18.88 15.3-34.2 34.2-34.2 18.88 0 34.2 15.32 34.2 34.2z" stroke="#1071e5" stroke-width="3" fill="#cfe4ff"/><use xlink:href="#b" transform="matrix(1,0,0,1,4577.619683125937,2404.9953917781477) translate(18.727222222222224 36.3)"/><use xlink:href="#c" transform="matrix(1,0,0,1,4577.619683125937,2404.9953917781477) translate(34.61611111111111 36.3)"/><path d="M4642.6 2591.47c0 18.88-15.32 34.2-34.2 34.2-18.9 0-34.2-15.32-34.2-34.2 0-18.9 15.3-34.2 34.2-34.2 18.88 0 34.2 15.3 34.2 34.2z" stroke="#1071e5" stroke-width="3" fill="#cfe4ff"/><use xlink:href="#b" transform="matrix(1,0,0,1,4577.619683125937,2560.6932133888067) translate(18.727222222222224 36.3)"/><use xlink:href="#c" transform="matrix(1,0,0,1,4577.619683125937,2560.6932133888067) translate(34.61611111111111 36.3)"/><path d="M4410.65 2556.62a12 12 0 0 1 16.98 0l26.7 26.72a12 12 0 0 1 0 16.97l-26.7 26.72a12 12 0 0 1-16.98 0l-26.7-26.7a12 12 0 0 1 0-17z" stroke="#1071e5" stroke-width="3" fill="#cfe4ff"/><use xlink:href="#i" transform="matrix(1,0,0,1,4379.820221793443,2552.5006740877257) translate(25.535555555555554 45.4875)"/><path d="M5113.82 2750.85a16 16 0 0 1 16-16h92.7a16 16 0 0 1 15.98 16v20.64a16 16 0 0 1-16 16h-92.68a16 16 0 0 1-16-16z" stroke="#1071e5" stroke-width="3" fill="#cfe4ff"/><use xlink:href="#j" transform="matrix(1,0,0,1,5120.0532065621055,2737.4777810342734) translate(34.833333333333336 29.8)"/><path d="M5021.1 2591.82c0 18.9-15.3 34.2-34.2 34.2-18.88 0-34.2-15.3-34.2-34.2 0-18.9 15.32-34.2 34.2-34.2 18.9 0 34.2 15.32 34.2 34.2z" stroke="#1071e5" stroke-width="3" fill="#cfe4ff"/><use xlink:href="#b" transform="matrix(1,0,0,1,4956.130671128487,2561.0446414189432) translate(18.727222222222224 36.3)"/><use xlink:href="#c" transform="matrix(1,0,0,1,4956.130671128487,2561.0446414189432) translate(34.61611111111111 36.3)"/><path d="M5167.68 2556.27a12 12 0 0 1 16.97 0l26.72 26.7a12 12 0 0 1 0 16.98l-26.72 26.72a12 12 0 0 1-16.97 0l-26.72-26.72a12 12 0 0 1 0-16.97z" stroke="#1071e5" stroke-width="3" fill="#cfe4ff"/><use xlink:href="#k" transform="matrix(1,0,0,1,5136.842197798545,2552.1492460575896) translate(24.56055555555556 45.4875)"/><path d="M4789.17 2556.27a12 12 0 0 1 16.97 0l26.7 26.7a12 12 0 0 1 0 16.98l-26.7 26.72a12 12 0 0 1-16.97 0l-26.72-26.72a12 12 0 0 1 0-16.97z" stroke="#1071e5" stroke-width="3" fill="#cfe4ff"/><use xlink:href="#l" transform="matrix(1,0,0,1,4758.331209795994,2552.1492460575896) translate(24.56055555555556 45.4875)"/><path d="M5032.47 2504.5v65.2" stroke="#008573" stroke-width="3" stroke-linejoin="round" fill="none"/><path d="M5032.45 2503l1.5-.08v1.62h-2.96v-1.64z" stroke="#008573" stroke-width=".05" fill="#008573"/><path d="M5032.47 2584.18l-7.5-13h15z" stroke="#008573" stroke-width="3" fill="#008573"/><path d="M4653.87 2504.02v.07l-.1.5-.1.5-.1.53-.15.5-.17.53-.2.52-.2.53-.27.55-.3.55-.32.57-.37.6-.43.6-.48.63-.56.66-.62.7-.72.73-.83.76-.96.83-1.12.9-1.34.95-1.6 1.06-1.92 1.18-2.36 1.3-2.96 1.46-3.8 1.7-5.02 1.97-6.96 2.42-10.4 3.12-18.68 4.75-81.7 18.54-10.4 3.12-6.96 2.4-5.02 2-3.8 1.68-2.96 1.46-2.37 1.3-1.92 1.17-1.6 1.05-.2.16" stroke="#008573" stroke-width="3" stroke-linejoin="round" fill="none"/><path d="M4653.94 2502.53l1.5-.1-.04 1.66-2.95-.07.03-1.6z" stroke="#008573" stroke-width=".05" fill="#008573"/><path d="M4466.34 2580.14l.83-14.97 12.56 8.2z" stroke="#008573" stroke-width="3" fill="#008573"/><path d="M4843.33 2362.3l.02.14.07.4.1.4.1.4.15.42.15.42.18.42.2.43.23.44.27.46.3.47.33.48.4.5.43.54.5.56.58.6.68.63.78.68.92.73 1.08.8 1.3.86 1.58.95 1.94 1.07 2.42 1.2 3.1 1.38 4.08 1.6 5.6 1.95 8.1 2.44 13.1 3.33 32 6.64 59.63 11.85 13.1 3.33 8.12 2.44 5.6 1.94 4.07 1.6 3.1 1.38 2.42 1.2 1.94 1.07.13.1" stroke="#008573" stroke-width="3" stroke-linejoin="round" fill="none"/><path d="M4843.2 2360.8l1.5-.07.02 1.6-2.95.05-.04-1.68z" stroke="#008573" stroke-width=".05" fill="#008573"/><path d="M5030.6 2429.25l-13.92-5.56 11.78-9.3z" stroke="#008573" stroke-width="3" fill="#008573"/><path d="M4359.25 2781.9a16 16 0 0 1 16-16h92.7a16 16 0 0 1 16 16v20.65a16 16 0 0 1-16 16h-92.7a16 16 0 0 1-16-16z" stroke="#008573" stroke-width="3" fill="#b8f5ed"/><use xlink:href="#m" transform="matrix(1,0,0,1,4365.488024215884,2768.5343541675797) translate(13.238888888888894 29.8)"/><path d="M4653.96 2504.03v65.3" stroke="#008573" stroke-width="3" stroke-linejoin="round" fill="none"/><path d="M4653.94 2502.53l1.5-.1v1.64h-2.96v-1.65z" stroke="#008573" stroke-width=".05" fill="#008573"/><path d="M4653.96 2583.83l-7.5-13h15z" stroke="#008573" stroke-width="3" fill="#008573"/><path d="M4653.9 2659.72l-.08.74-.1.73-.15.7-.17.74-.2.73-.24.73-.28.74-.3.75-.37.75-.4.78-.46.8-.53.83-.58.85-.67.9-.77.92-.87.97-1 1.02-1.15 1.08-1.35 1.16-1.57 1.24-1.85 1.35-2.22 1.47-2.67 1.62-3.3 1.8-4.12 2.04-5.3 2.35-7.03 2.78-9.88 3.43-15.28 4.6-33.5 8.44-72.93 17.54-15.3 4.6-9.87 3.42-7.04 2.77-5.3 2.34-4.1 2.04-3.3 1.8-2.67 1.63-2.23 1.48-1.85 1.34-1.57 1.25-1.35 1.15-1.02.97" stroke="#008573" stroke-width="3" stroke-linejoin="round" fill="none"/><path d="M4653.94 2658.22l1.5-.08-.04 1.65-2.95-.07.03-1.6z" stroke="#008573" stroke-width=".05" fill="#008573"/><path d="M4422.9 2761.7l-1.1-14.96 13.5 6.52z" stroke="#008573" stroke-width="3" fill="#008573"/><path d="M4877.4 2325.1c0 18.9-15.3 34.2-34.2 34.2-18.87 0-34.18-15.3-34.18-34.2 0-18.87 15.3-34.18 34.2-34.18 18.88 0 34.2 15.3 34.2 34.2z" stroke="#008573" stroke-width="3" fill="#b8f5ed"/><use xlink:href="#b" transform="matrix(1,0,0,1,4812.436223252845,2294.338190979825) translate(18.727222222222224 36.3)"/><use xlink:href="#c" transform="matrix(1,0,0,1,4812.436223252845,2294.338190979825) translate(34.61611111111111 36.3)"/><path d="M5032.56 2504.5v.04l.08.5.1.5.1.5.15.5.16.5.2.53.2.52.26.52.28.54.32.56.37.57.4.6.48.6.53.66.63.68.7.72.82.76.94.82 1.1.88 1.3.95 1.58 1.04 1.9 1.16 2.32 1.27 2.9 1.44 3.74 1.66 4.94 1.95 6.82 2.36 10.17 3.06 18 4.57 84.05 18.94 10.17 3.06 6.8 2.37 4.95 1.95 3.73 1.65 2.9 1.44 2.34 1.28 1.9 1.15 1.52 1" stroke="#008573" stroke-width="3" stroke-linejoin="round" fill="none"/><path d="M5032.45 2503l1.5-.08.02 1.6-2.95.05-.03-1.67z" stroke="#008573" stroke-width=".05" fill="#008573"/><path d="M5220.06 2579.8l-13.43-6.67 12.5-8.3z" stroke="#008573" stroke-width="3" fill="#008573"/><path d="M4998.27 2780.3a7.24 7.24 0 0 1 2.12-5.1l16.34-16.36a7.24 7.24 0 0 1 5.13-2.12h23.82a7.24 7.24 0 0 1 5.1 2.12l16.36 16.35a7.24 7.24 0 0 1 2.12 5.1v23.84a7.24 7.24 0 0 1-2.12 5.12l-16.35 16.35a7.24 7.24 0 0 1-5.1 2.13h-23.84a7.24 7.24 0 0 1-5.12-2.12l-16.35-16.34a7.24 7.24 0 0 1-2.13-5.12z" stroke="#008573" stroke-width="3" fill="#b8f5ed"/><use xlink:href="#d" transform="matrix(1,0,0,1,5001.822683961498,2760.2700759681943) translate(5.819444444444446 36.8)"/><path d="M5032.5 2660.08l1.04 77.65" stroke="#008573" stroke-width="3" stroke-linejoin="round" fill="none"/><path d="M5032.45 2658.57l1.5-.08v1.6l-2.94.03v-1.66z" stroke="#008573" stroke-width=".05" fill="#008573"/><path d="M5033.74 2752.22l-7.68-12.9 15-.2z" stroke="#008573" stroke-width="3" fill="#008573"/><path d="M4725.66 2765.9c13.86 0 25.1 11.24 25.1 25.1 0 13.87-11.24 25.1-25.1 25.1h-143.4c-13.87 0-25.1-11.23-25.1-25.1 0-13.86 11.23-25.1 25.1-25.1z" stroke="#008573" stroke-width="3" fill="#b8f5ed"/><use xlink:href="#n" transform="matrix(1,0,0,1,4566.828918385311,2768.4126933965404) translate(9.030555555555551 29.425)"/><use xlink:href="#o" transform="matrix(1,0,0,1,4566.828918385311,2768.4126933965404) translate(52.36388888888888 29.425)"/><use xlink:href="#p" transform="matrix(1,0,0,1,4566.828918385311,2768.4126933965404) translate(93.74722222222222 29.425)"/><use xlink:href="#q" transform="matrix(1,0,0,1,4566.828918385311,2768.4126933965404) translate(137.08055555555558 29.425)"/><path d="M4653.96 2659.72v87.2" stroke="#008573" stroke-width="3" stroke-linejoin="round" fill="none"/><path d="M4653.94 2658.22l1.5-.08v1.62h-2.96v-1.64z" stroke="#008573" stroke-width=".05" fill="#008573"/><path d="M4653.96 2761.4l-7.5-13h15z" stroke="#008573" stroke-width="3" fill="#008573"/><path d="M4843.1 2362.3l-.02.12-.08.4-.1.4-.1.4-.14.4-.15.4-.16.43-.2.42-.23.44-.25.46-.3.46-.33.48-.38.5-.44.53-.5.55-.57.6-.66.6-.78.68-.92.72-1.07.78-1.28.85-1.56.95-1.9 1.06-2.4 1.2-3.07 1.35-4.05 1.6-5.52 1.9-8 2.42-12.9 3.28-30.37 6.3-62.5 12.34-12.9 3.27-8.02 2.4-5.52 1.93-4.04 1.6-3.06 1.35-2.4 1.2-1.87 1" stroke="#008573" stroke-width="3" stroke-linejoin="round" fill="none"/><path d="M4843.2 2360.8l1.5-.07-.05 1.65-2.94-.06.04-1.6z" stroke="#008573" stroke-width=".05" fill="#008573"/><path d="M4655.82 2428.78l2.22-14.83 11.74 9.33z" stroke="#008573" stroke-width="3" fill="#008573"/><path d="M5032.52 2660.07l.02.33.1.88.13.88.16.87.2.87.25.86.28.87.32.87.38.88.42.9.47.9.54.94.6.96.68.98.78 1.02.88 1.07 1 1.1 1.14 1.17 1.32 1.24 1.52 1.3 1.78 1.42 2.1 1.52 2.5 1.66 3.02 1.83 3.73 2.04 4.7 2.33 6.17 2.73 8.5 3.35 13 4.5 88.76 26.78 8.5 3.34 6.15 2.74 4.7 2.34 3.74 2.05 3.03 1.82 2.5 1.66 2.1 1.52 1.77 1.4 1.52 1.32 1.3 1.23 1.15 1.17.78.87" stroke="#008573" stroke-width="3" stroke-linejoin="round" fill="none"/><path d="M5032.45 2658.57l1.5-.08.02 1.58-2.95.07-.03-1.68z" stroke="#008573" stroke-width=".05" fill="#008573"/><path d="M5220.58 2761.63l-11.87-9.17 13.9-5.7z" stroke="#008573" stroke-width="3" fill="#008573"/><path d="M5066.66 2467.3c0 18.9-15.3 34.2-34.2 34.2-18.88 0-34.2-15.3-34.2-34.2 0-18.88 15.32-34.2 34.2-34.2 18.9 0 34.2 15.32 34.2 34.2z" stroke="#008573" stroke-width="3" fill="#b8f5ed"/><use xlink:href="#b" transform="matrix(1,0,0,1,5001.69171725412,2436.5298272199757) translate(18.727222222222224 36.3)"/><use xlink:href="#c" transform="matrix(1,0,0,1,5001.69171725412,2436.5298272199757) translate(34.61611111111111 36.3)"/><path d="M4688.15 2466.83c0 18.88-15.3 34.2-34.2 34.2-18.88 0-34.2-15.32-34.2-34.2 0-18.9 15.32-34.2 34.2-34.2 18.9 0 34.2 15.3 34.2 34.2z" stroke="#008573" stroke-width="3" fill="#b8f5ed"/><use xlink:href="#b" transform="matrix(1,0,0,1,4623.18072925157,2436.051964911454) translate(18.727222222222224 36.3)"/><use xlink:href="#c" transform="matrix(1,0,0,1,4623.18072925157,2436.051964911454) translate(34.61611111111111 36.3)"/><path d="M4688.15 2622.53c0 18.88-15.3 34.2-34.2 34.2-18.88 0-34.2-15.32-34.2-34.2 0-18.9 15.32-34.2 34.2-34.2 18.9 0 34.2 15.3 34.2 34.2z" stroke="#008573" stroke-width="3" fill="#b8f5ed"/><use xlink:href="#b" transform="matrix(1,0,0,1,4623.18072925157,2591.749786522113) translate(18.727222222222224 36.3)"/><use xlink:href="#c" transform="matrix(1,0,0,1,4623.18072925157,2591.749786522113) translate(34.61611111111111 36.3)"/><path d="M4456.22 2587.67a12 12 0 0 1 16.97 0l26.7 26.72a12 12 0 0 1 0 16.96l-26.7 26.72a12 12 0 0 1-16.98 0l-26.72-26.72a12 12 0 0 1 0-16.97z" stroke="#008573" stroke-width="3" fill="#b8f5ed"/><use xlink:href="#i" transform="matrix(1,0,0,1,4425.381267919076,2583.557247221032) translate(25.535555555555554 45.4875)"/><path d="M5159.38 2781.9a16 16 0 0 1 16-16h92.7a16 16 0 0 1 16 16v20.65a16 16 0 0 1-16 16h-92.7a16 16 0 0 1-16-16z" stroke="#008573" stroke-width="3" fill="#b8f5ed"/><use xlink:href="#j" transform="matrix(1,0,0,1,5165.614252687738,2768.5343541675797) translate(34.833333333333336 29.8)"/><path d="M5066.66 2622.88c0 18.88-15.3 34.2-34.2 34.2-18.88 0-34.2-15.32-34.2-34.2 0-18.9 15.32-34.2 34.2-34.2 18.9 0 34.2 15.3 34.2 34.2z" stroke="#008573" stroke-width="3" fill="#b8f5ed"/><use xlink:href="#b" transform="matrix(1,0,0,1,5001.69171725412,2592.1012145522495) translate(18.727222222222224 36.3)"/><use xlink:href="#c" transform="matrix(1,0,0,1,5001.69171725412,2592.1012145522495) translate(34.61611111111111 36.3)"/><path d="M4834.73 2432.1a12 12 0 0 1 16.97 0l26.72 26.72a12 12 0 0 1 0 16.97l-26.72 26.7a12 12 0 0 1-16.97 0l-26.72-26.7a12 12 0 0 1 0-16.98z" stroke="#008573" stroke-width="3" fill="#b8f5ed"/><use xlink:href="#r" transform="matrix(1,0,0,1,4803.892255921627,2427.985859888758) translate(24.56055555555556 45.4875)"/><path d="M5213.24 2587.32a12 12 0 0 1 16.97 0l26.73 26.72a12 12 0 0 1 0 16.97l-26.72 26.73a12 12 0 0 1-16.96 0l-26.72-26.72a12 12 0 0 1 0-16.96z" stroke="#008573" stroke-width="3" fill="#b8f5ed"/><use xlink:href="#s" transform="matrix(1,0,0,1,5182.403243924176,2583.205819190896) translate(24.56055555555556 45.4875)"/><path d="M4330.32 2490.86a6 6 0 0 1 6-6h148.16a6 6 0 0 1 6 6v60.4a6 6 0 0 1-6 6h-148.16a6 6 0 0 1-6-6z" fill="none"/><use xlink:href="#t" transform="matrix(1,0,0,1,4335.319949190063,2489.8636919404094) translate(0 21.1)"/><use xlink:href="#u" transform="matrix(1,0,0,1,4335.319949190063,2489.8636919404094) translate(72.22222222222223 21.1)"/><use xlink:href="#v" transform="matrix(1,0,0,1,4335.319949190063,2489.8636919404094) translate(0 52.300000000000004)"/><path d="M4286.14 2831.9a6 6 0 0 1 6-6h199.5a6 6 0 0 1 6 6v60.4a6 6 0 0 1-6 6h-199.5a6 6 0 0 1-6-6z" fill="none"/><g><use xlink:href="#w" transform="matrix(1,0,0,1,4291.143986500671,2830.902849521632) translate(0 21.1)"/><use xlink:href="#x" transform="matrix(1,0,0,1,4291.143986500671,2830.902849521632) translate(51.92777777777777 21.1)"/><use xlink:href="#y" transform="matrix(1,0,0,1,4291.143986500671,2830.902849521632) translate(163.07777777777778 21.1)"/><use xlink:href="#z" transform="matrix(1,0,0,1,4291.143986500671,2830.902849521632) translate(0 52.300000000000004)"/><use xlink:href="#A" transform="matrix(1,0,0,1,4291.143986500671,2830.902849521632) translate(150.94444444444446 52.300000000000004)"/></g><path d="M5213.63 2491.22a6 6 0 0 1 6-6h148.16a6 6 0 0 1 6 6v60.4a6 6 0 0 1-6 6h-148.17a6 6 0 0 1-6-6z" fill="none"/><g><use xlink:href="#t" transform="matrix(1,0,0,1,5218.6341879509255,2490.215119970546) translate(0 21.1)"/><use xlink:href="#u" transform="matrix(1,0,0,1,5218.6341879509255,2490.215119970546) translate(72.22222222222223 21.1)"/><use xlink:href="#B" transform="matrix(1,0,0,1,5218.6341879509255,2490.215119970546) translate(0 52.300000000000004)"/></g><path d="M4926.27 2839.92a6 6 0 0 1 6-6h148.16a6 6 0 0 1 6 6v60.4a6 6 0 0 1-6 6h-148.16a6 6 0 0 1-6-6z" fill="none"/><g><use xlink:href="#t" transform="matrix(1,0,0,1,4931.273168253356,2838.9192245380473) translate(0.42499999999999716 21.1)"/><use xlink:href="#u" transform="matrix(1,0,0,1,4931.273168253356,2838.9192245380473) translate(72.64722222222223 21.1)"/><use xlink:href="#v" transform="matrix(1,0,0,1,4931.273168253356,2838.9192245380473) translate(57.44444444444444 52.300000000000004)"/></g><path d="M5132.47 2831.9a6 6 0 0 1 6-6h185.07a6 6 0 0 1 6 6v60.4a6 6 0 0 1-6 6h-185.07a6 6 0 0 1-6-6z" fill="none"/><g><use xlink:href="#w" transform="matrix(1,0,0,1,5137.47334664668,2830.902849521632) translate(0 21.1)"/><use xlink:href="#x" transform="matrix(1,0,0,1,5137.47334664668,2830.902849521632) translate(51.92777777777777 21.1)"/><use xlink:href="#C" transform="matrix(1,0,0,1,5137.47334664668,2830.902849521632) translate(163.07777777777778 21.1)"/><use xlink:href="#z" transform="matrix(1,0,0,1,5137.47334664668,2830.902849521632) translate(0 52.300000000000004)"/><use xlink:href="#D" transform="matrix(1,0,0,1,5137.47334664668,2830.902849521632) translate(150.94444444444446 52.300000000000004)"/></g><path d="M4567.34 2833.73a6 6 0 0 1 6-6h205.94a6 6 0 0 1 6 6v29.2a6 6 0 0 1-6 6h-205.94a6 6 0 0 1-6-6z" fill="none"/><g><use xlink:href="#t" transform="matrix(1,0,0,1,4572.339757382172,2832.7293509279457) translate(0 21.2)"/><use xlink:href="#E" transform="matrix(1,0,0,1,4572.339757382172,2832.7293509279457) translate(72.22222222222223 21.2)"/><use xlink:href="#F" transform="matrix(1,0,0,1,4572.339757382172,2832.7293509279457) translate(157.37222222222223 21.2)"/></g><path d="M4843.2 2362.3v47.3" stroke="#008573" stroke-width="3" stroke-linejoin="round" fill="none"/><path d="M4843.2 2360.8l1.5-.07v1.62h-2.96v-1.64z" stroke="#008573" stroke-width=".05" fill="#008573"/><path d="M4843.2 2424.08l-7.5-13h15z" stroke="#008573" stroke-width="3" fill="#008573"/><path d="M4986.8 2473.44v.04l-.06.5-.1.5-.12.5-.14.5-.16.5-.2.53-.2.53-.26.53-.3.54-.3.56-.38.58-.4.6-.48.6-.54.66-.6.68-.72.72-.8.77-.96.8-1.1.9-1.32.94-1.56 1.05-1.9 1.15-2.33 1.28-2.9 1.44-3.74 1.65-4.93 1.95-6.83 2.37-10.16 3.04-18 4.58-84.05 18.93-10.17 3.06-6.82 2.37-4.93 1.95-3.73 1.66-2.92 1.44-2.32 1.27-1.9 1.14-1.52 1" stroke="#1071e5" stroke-width="3" stroke-linejoin="round" fill="none"/><path d="M4986.9 2471.95l1.48-.08-.03 1.65-2.95-.07.03-1.6z" stroke="#1071e5" stroke-width=".05" fill="#1071e5"/><path d="M4799.3 2548.75l.94-14.97 12.5 8.3z" stroke="#1071e5" stroke-width="3" fill="#1071e5"/><defs><path d="M96-169c-40 0-48 33-48 73s9 75 48 75c24 0 41-14 43-38l32 2c-6 37-31 61-74 61-59 0-76-41-82-99-10-93 101-131 147-64 4 7 5 14 7 22l-32 3c-4-21-16-35-41-35" id="G"/><path d="M141-36C126-15 110 5 73 4 37 3 15-17 15-53c-1-64 63-63 125-63 3-35-9-54-41-54-24 1-41 7-42 31l-33-3c5-37 33-52 76-52 45 0 72 20 72 64v82c-1 20 7 32 28 27v20c-31 9-61-2-59-35zM48-53c0 20 12 33 32 33 41-3 63-29 60-74-43 2-92-5-92 41" id="H"/><path d="M59-47c-2 24 18 29 38 22v24C64 9 27 4 27-40v-127H5v-23h24l9-43h21v43h35v23H59v120" id="I"/><g id="a"><use transform="matrix(0.07222222222222222,0,0,0.07222222222222222,0,0)" xlink:href="#G"/><use transform="matrix(0.07222222222222222,0,0,0.07222222222222222,12.999999999999998,0)" xlink:href="#H"/><use transform="matrix(0.07222222222222222,0,0,0.07222222222222222,27.444444444444443,0)" xlink:href="#I"/></g><path d="M39-94c74 12-11 154 75 146v23c-44 4-70-10-70-52C44-23 55-84 6-82v-22c81 4-7-162 84-157h24v23c-82-15-2 131-75 144" id="J"/><use transform="matrix(0.07222222222222222,0,0,0.07222222222222222,0,0)" xlink:href="#J" id="b"/><path d="M76-40C78 24 84 88 6 75V52C86 64 9-79 80-94c-40-6-34-59-34-106 1-29-11-41-40-38v-23c44-4 70 10 70 52 0 47-12 108 38 105v22c-26 1-39 14-38 42" id="K"/><use transform="matrix(0.07222222222222222,0,0,0.07222222222222222,0,0)" xlink:href="#K" id="c"/><path d="M127-220V0H93v-220H8v-28h204v28h-85" id="L"/><path d="M114-163C36-179 61-72 57 0H25l-1-190h30c1 12-1 29 2 39 6-27 23-49 58-41v29" id="M"/><path d="M84 4C-5 8 30-112 23-190h32v120c0 31 7 50 39 49 72-2 45-101 50-169h31l1 190h-30c-1-10 1-25-2-33-11 22-28 36-60 37" id="N"/><path d="M100-194c63 0 86 42 84 106H49c0 40 14 67 53 68 26 1 43-12 49-29l28 8c-11 28-37 45-77 45C44 4 14-33 15-96c1-61 26-98 85-98zm52 81c6-60-76-77-97-28-3 7-6 17-6 28h103" id="O"/><g id="d"><use transform="matrix(0.07222222222222222,0,0,0.07222222222222222,0,0)" xlink:href="#L"/><use transform="matrix(0.07222222222222222,0,0,0.07222222222222222,14.877777777777776,0)" xlink:href="#M"/><use transform="matrix(0.07222222222222222,0,0,0.07222222222222222,23.47222222222222,0)" xlink:href="#N"/><use transform="matrix(0.07222222222222222,0,0,0.07222222222222222,37.916666666666664,0)" xlink:href="#O"/></g><path d="M27 0v-27h64v-190l-56 39v-29l58-41h29v221h61V0H27" id="P"/><path d="M101-251c68 0 85 55 85 127S166 4 100 4C33 4 14-52 14-124c0-73 17-127 87-127zm-1 229c47 0 54-49 54-102s-4-102-53-102c-51 0-55 48-55 102 0 53 5 102 54 102" id="Q"/><path d="M68-38c1 34 0 65-14 84H32c9-13 17-26 17-46H33v-38h35" id="R"/><g id="e"><use transform="matrix(0.07222222222222222,0,0,0.07222222222222222,0,0)" xlink:href="#P"/><use transform="matrix(0.07222222222222222,0,0,0.07222222222222222,14.444444444444443,0)" xlink:href="#Q"/><use transform="matrix(0.07222222222222222,0,0,0.07222222222222222,28.888888888888886,0)" xlink:href="#R"/></g><path d="M101-251c82-7 93 87 43 132L82-64C71-53 59-42 53-27h129V0H18c2-99 128-94 128-182 0-28-16-43-45-43s-46 15-49 41l-32-3c6-41 34-60 81-64" id="S"/><g id="f"><use transform="matrix(0.07222222222222222,0,0,0.07222222222222222,0,0)" xlink:href="#S"/><use transform="matrix(0.07222222222222222,0,0,0.07222222222222222,14.444444444444443,0)" xlink:href="#Q"/><use transform="matrix(0.07222222222222222,0,0,0.07222222222222222,28.888888888888886,0)" xlink:href="#R"/></g><path d="M126-127c33 6 58 20 58 59 0 88-139 92-164 29-3-8-5-16-6-25l32-3c6 27 21 44 54 44 32 0 52-15 52-46 0-38-36-46-79-43v-28c39 1 72-4 72-42 0-27-17-43-46-43-28 0-47 15-49 41l-32-3c6-42 35-63 81-64 48-1 79 21 79 65 0 36-21 52-52 59" id="T"/><g id="g"><use transform="matrix(0.07222222222222222,0,0,0.07222222222222222,0,0)" xlink:href="#T"/><use transform="matrix(0.07222222222222222,0,0,0.07222222222222222,14.444444444444443,0)" xlink:href="#Q"/><use transform="matrix(0.07222222222222222,0,0,0.07222222222222222,28.888888888888886,0)" xlink:href="#R"/></g><path d="M155-56V0h-30v-56H8v-25l114-167h33v167h35v25h-35zm-30-156c-27 46-58 90-88 131h88v-131" id="U"/><g id="h"><use transform="matrix(0.07222222222222222,0,0,0.07222222222222222,0,0)" xlink:href="#U"/><use transform="matrix(0.07222222222222222,0,0,0.07222222222222222,14.444444444444443,0)" xlink:href="#Q"/></g><g id="i"><use transform="matrix(0.07222222222222222,0,0,0.07222222222222222,0,0)" xlink:href="#P"/><use transform="matrix(0.07222222222222222,0,0,0.07222222222222222,12.494444444444444,0)" xlink:href="#P"/></g><path d="M85-194c31 0 48 13 60 33l-1-100h32l1 261h-30c-2-10 0-23-3-31C134-8 116 4 85 4 32 4 16-35 15-94c0-66 23-100 70-100zm9 24c-40 0-46 34-46 75 0 40 6 74 45 74 42 0 51-32 51-76 0-42-9-74-50-73" id="V"/><path d="M100-194c62-1 85 37 85 99 1 63-27 99-86 99S16-35 15-95c0-66 28-99 85-99zM99-20c44 1 53-31 53-75 0-43-8-75-51-75s-53 32-53 75 10 74 51 75" id="W"/><path d="M177-190C167-65 218 103 67 71c-23-6-38-20-44-43l32-5c15 47 100 32 89-28v-30C133-14 115 1 83 1 29 1 15-40 15-95c0-56 16-97 71-98 29-1 48 16 59 35 1-10 0-23 2-32h30zM94-22c36 0 50-32 50-73 0-42-14-75-50-75-39 0-46 34-46 75s6 73 46 73" id="X"/><g id="j"><use transform="matrix(0.07222222222222222,0,0,0.07222222222222222,0,0)" xlink:href="#V"/><use transform="matrix(0.07222222222222222,0,0,0.07222222222222222,14.444444444444443,0)" xlink:href="#W"/><use transform="matrix(0.07222222222222222,0,0,0.07222222222222222,28.888888888888886,0)" xlink:href="#X"/></g><g id="k"><use transform="matrix(0.07222222222222222,0,0,0.07222222222222222,0,0)" xlink:href="#P"/><use transform="matrix(0.07222222222222222,0,0,0.07222222222222222,14.444444444444443,0)" xlink:href="#U"/></g><g id="l"><use transform="matrix(0.07222222222222222,0,0,0.07222222222222222,0,0)" xlink:href="#S"/><use transform="matrix(0.07222222222222222,0,0,0.07222222222222222,14.444444444444443,0)" xlink:href="#Q"/></g><path d="M24 0v-261h32V0H24" id="Y"/><path d="M115-194c55 1 70 41 70 98S169 2 115 4C84 4 66-9 55-30l1 105H24l-1-265h31l2 30c10-21 28-34 59-34zm-8 174c40 0 45-34 45-75s-6-73-45-74c-42 0-51 32-51 76 0 43 10 73 51 73" id="Z"/><g id="m"><use transform="matrix(0.07222222222222222,0,0,0.07222222222222222,0,0)" xlink:href="#Y"/><use transform="matrix(0.07222222222222222,0,0,0.07222222222222222,5.705555555555555,0)" xlink:href="#O"/><use transform="matrix(0.07222222222222222,0,0,0.07222222222222222,20.15,0)" xlink:href="#W"/><use transform="matrix(0.07222222222222222,0,0,0.07222222222222222,34.59444444444444,0)" xlink:href="#Z"/><use transform="matrix(0.07222222222222222,0,0,0.07222222222222222,49.038888888888884,0)" xlink:href="#H"/><use transform="matrix(0.07222222222222222,0,0,0.07222222222222222,63.48333333333333,0)" xlink:href="#M"/><use transform="matrix(0.07222222222222222,0,0,0.07222222222222222,72.07777777777777,0)" xlink:href="#V"/></g><g id="n"><use transform="matrix(0.07222222222222222,0,0,0.07222222222222222,0,0)" xlink:href="#S"/><use transform="matrix(0.07222222222222222,0,0,0.07222222222222222,14.444444444444443,0)" xlink:href="#Q"/><use transform="matrix(0.07222222222222222,0,0,0.07222222222222222,28.888888888888886,0)" xlink:href="#R"/></g><g id="o"><use transform="matrix(0.07222222222222222,0,0,0.07222222222222222,0,0)" xlink:href="#P"/><use transform="matrix(0.07222222222222222,0,0,0.07222222222222222,12.494444444444444,0)" xlink:href="#P"/><use transform="matrix(0.07222222222222222,0,0,0.07222222222222222,26.938888888888886,0)" xlink:href="#R"/></g><g id="p"><use transform="matrix(0.07222222222222222,0,0,0.07222222222222222,0,0)" xlink:href="#U"/><use transform="matrix(0.07222222222222222,0,0,0.07222222222222222,14.444444444444443,0)" xlink:href="#Q"/><use transform="matrix(0.07222222222222222,0,0,0.07222222222222222,28.888888888888886,0)" xlink:href="#R"/></g><g id="q"><use transform="matrix(0.07222222222222222,0,0,0.07222222222222222,0,0)" xlink:href="#T"/><use transform="matrix(0.07222222222222222,0,0,0.07222222222222222,14.444444444444443,0)" xlink:href="#Q"/></g><path d="M110-160c48 1 74 30 74 79 0 53-28 85-80 85-65 0-83-55-86-122-5-90 50-162 133-122 14 7 22 21 27 39l-31 6c-5-40-67-38-82-6-9 19-15 44-15 74 11-20 30-34 60-33zm-7 138c34 0 49-23 49-58s-16-56-50-56c-29 0-50 16-49 49 1 36 15 65 50 65" id="aa"/><g id="r"><use transform="matrix(0.07222222222222222,0,0,0.07222222222222222,0,0)" xlink:href="#aa"/><use transform="matrix(0.07222222222222222,0,0,0.07222222222222222,14.444444444444443,0)" xlink:href="#Q"/></g><g id="s"><use transform="matrix(0.07222222222222222,0,0,0.07222222222222222,0,0)" xlink:href="#P"/><use transform="matrix(0.07222222222222222,0,0,0.07222222222222222,14.444444444444443,0)" xlink:href="#aa"/></g><path d="M11 0l48-248h184l-5 28H87l-15 79h140l-5 27H67L50-27h158l-5 27H11" id="ab"/><path d="M124 0L87-78 21 0h-35l86-98-46-92h33l34 74 61-74h37l-83 92 50 98h-34" id="ac"/><path d="M165-48c-4 18 1 34 23 27l-3 20c-29 8-62 0-52-35h-2C116-14 99 4 63 4 30 4 8-16 8-49c0-68 71-67 138-67 10-26 0-56-31-54-26 1-42 9-47 31l-32-5c8-67 160-71 144 15-5 28-9 54-15 81zM42-50c3 52 80 24 89-6 7-12 7-24 11-38-47 1-103-4-100 44" id="ad"/><path d="M44-68c0 29 11 47 38 47 30 0 42-19 51-41l28 9C148-21 126 4 82 4 31 4 10-29 12-85c3-77 74-140 146-93 12 8 15 23 18 40l-31 5c-1-22-13-36-36-36-52 0-65 49-65 101" id="ae"/><path d="M51-54c-9 22 5 41 31 30L79-1C43 14 10-4 19-52l22-115H19l5-23h22l19-43h21l-9 43h35l-4 23H73" id="af"/><g id="t"><use transform="matrix(0.07222222222222222,0,0,0.07222222222222222,0,0)" xlink:href="#ab"/><use transform="matrix(0.07222222222222222,0,0,0.07222222222222222,17.333333333333332,0)" xlink:href="#ac"/><use transform="matrix(0.07222222222222222,0,0,0.07222222222222222,30.333333333333332,0)" xlink:href="#ad"/><use transform="matrix(0.07222222222222222,0,0,0.07222222222222222,44.77777777777777,0)" xlink:href="#ae"/><use transform="matrix(0.07222222222222222,0,0,0.07222222222222222,57.77777777777777,0)" xlink:href="#af"/></g><path d="M248-111c6-24 9-61-24-58-72 9-57 108-77 169h-31l26-142c3-37-50-30-64-10C52-115 50-51 37 0H6l36-190h30c-1 10-6 24-4 32 13-43 101-52 105 5 13-22 29-41 61-41 90 0 28 129 23 194h-31" id="ag"/><path d="M67-158c15-20 31-36 64-36 94 0 33 127 27 194h-32l25-140c3-38-53-32-70-12C52-117 51-51 37 0H6l51-261h31" id="ah"/><path d="M44-154l7-36h35l-8 36H44zM14 0l7-36h35L49 0H14" id="ai"/><g id="u"><use transform="matrix(0.07222222222222222,0,0,0.07222222222222222,0,0)" xlink:href="#ag"/><use transform="matrix(0.07222222222222222,0,0,0.07222222222222222,21.59444444444444,0)" xlink:href="#ad"/><use transform="matrix(0.07222222222222222,0,0,0.07222222222222222,36.038888888888884,0)" xlink:href="#af"/><use transform="matrix(0.07222222222222222,0,0,0.07222222222222222,43.261111111111106,0)" xlink:href="#ae"/><use transform="matrix(0.07222222222222222,0,0,0.07222222222222222,56.261111111111106,0)" xlink:href="#ah"/><use transform="matrix(0.07222222222222222,0,0,0.07222222222222222,70.70555555555555,0)" xlink:href="#ai"/></g><path d="M9 0l6-27h63l36-188-63 39 6-31 66-41h29L110-27h60l-5 27H9" id="aj"/><path d="M14 0l8-38h34L48 0H14" id="ak"/><path d="M16-82c0-90 25-169 113-169 48 0 68 33 68 82C197-79 170 4 84 4 37 4 16-31 16-82zm30 5c0 32 11 55 40 55 69 0 76-79 80-149 2-32-10-55-39-55-69 0-81 81-81 149" id="al"/><g id="v"><use transform="matrix(0.07222222222222222,0,0,0.07222222222222222,0,0)" xlink:href="#aj"/><use transform="matrix(0.07222222222222222,0,0,0.07222222222222222,14.444444444444443,0)" xlink:href="#ak"/><use transform="matrix(0.07222222222222222,0,0,0.07222222222222222,21.666666666666664,0)" xlink:href="#al"/></g><path d="M133-28C103 26-5 8 13-77c13-62 24-115 90-117 29-1 46 15 56 35l19-102h32L160 0h-30zM45-64c-2 27 10 43 35 43 54-1 69-50 69-103 0-29-15-46-42-46-53-1-58 58-62 106" id="am"/><path d="M50-231l6-30h32l-6 30H50zM6 0l37-190h31L37 0H6" id="an"/><g id="w"><use transform="matrix(0.07222222222222222,0,0,0.07222222222222222,0,0)" xlink:href="#ab"/><use transform="matrix(0.07222222222222222,0,0,0.07222222222222222,17.333333333333332,0)" xlink:href="#am"/><use transform="matrix(0.07222222222222222,0,0,0.07222222222222222,31.777777777777775,0)" xlink:href="#an"/><use transform="matrix(0.07222222222222222,0,0,0.07222222222222222,37.48333333333333,0)" xlink:href="#af"/></g><path d="M55-144c13 50 104 24 104 88C159 21 15 23 1-39l26-10c6 40 102 42 102-4-13-50-104-23-104-87 0-71 143-71 148-8l-29 4c-5-35-85-37-89 0" id="ao"/><path d="M67-158c22-48 132-52 116 29L158 0h-32l25-140c3-38-53-32-70-12C52-117 51-52 38 0H6l36-190h30" id="ap"/><path d="M111-194c62-3 86 47 72 106H45c-7 38 6 69 45 68 27-1 43-14 53-32l24 11C152-15 129 4 87 4 38 3 12-23 12-71c0-70 32-119 99-123zm44 81c14-66-71-72-95-28-4 8-8 17-11 28h106" id="aq"/><g id="x"><use transform="matrix(0.07222222222222222,0,0,0.07222222222222222,0,0)" xlink:href="#am"/><use transform="matrix(0.07222222222222222,0,0,0.07222222222222222,14.444444444444443,0)" xlink:href="#an"/><use transform="matrix(0.07222222222222222,0,0,0.07222222222222222,20.15,0)" xlink:href="#ao"/><use transform="matrix(0.07222222222222222,0,0,0.07222222222222222,33.15,0)" xlink:href="#af"/><use transform="matrix(0.07222222222222222,0,0,0.07222222222222222,40.37222222222222,0)" xlink:href="#ad"/><use transform="matrix(0.07222222222222222,0,0,0.07222222222222222,54.81666666666666,0)" xlink:href="#ap"/><use transform="matrix(0.07222222222222222,0,0,0.07222222222222222,69.2611111111111,0)" xlink:href="#ae"/><use transform="matrix(0.07222222222222222,0,0,0.07222222222222222,82.2611111111111,0)" xlink:href="#aq"/><use transform="matrix(0.07222222222222222,0,0,0.07222222222222222,96.70555555555555,0)" xlink:href="#ai"/></g><path d="M184-94c-4 58-33 98-90 98-50 0-74-35-74-86 0-94 36-181 136-167 24 3 39 21 44 47l-29 6c-8-40-68-34-87-5-13 20-24 43-30 73 28-51 135-39 130 34zm-73-42c-35 2-61 22-60 62 1 30 14 52 44 52 38 0 55-31 56-70 1-26-14-46-40-44" id="ar"/><use transform="matrix(0.07222222222222222,0,0,0.07222222222222222,0,0)" xlink:href="#ar" id="y"/><path d="M219-77C219 17 104-2 11 0l48-248c73 2 169-15 169 57 0 38-24 54-60 60 29 5 51 21 51 54zm-26-111c0-44-62-31-105-33l-16 79c55 0 121 9 121-46zm-7 110c-1-49-69-36-119-38L50-27c61-1 137 12 136-51" id="as"/><path d="M249-183c0 48-29 72-75 77L221 0h-36l-43-103H65L45 0H11l48-248c83 2 190-17 190 65zm-34 3c0-55-74-39-127-41l-18 92c63-1 145 13 145-51" id="at"/><path d="M151-220L108 0H75l42-220H32l6-28h203l-5 28h-85" id="au"/><path d="M194-120c59 52 2 134-86 124-53-6-90-18-98-63l31-7c8 30 29 43 70 43 46 0 84-17 71-62-32-43-135-20-137-98-3-89 178-90 191-16l-30 9c-8-48-127-53-127 5 0 53 81 35 115 65" id="av"/><path d="M30-147c31-64 166-65 159 27C183-49 158 1 86 4 9 8 1-88 30-147zM88-20c53 0 68-48 68-100 0-31-11-51-44-50-52 1-68 46-68 97 0 32 13 53 44 53" id="aw"/><path d="M66-151c12-25 30-51 66-40l-6 26C45-176 58-65 38 0H6l36-190h30" id="ax"/><g id="z"><use transform="matrix(0.07222222222222222,0,0,0.07222222222222222,0,0)" xlink:href="#as"/><use transform="matrix(0.07222222222222222,0,0,0.07222222222222222,17.333333333333332,0)" xlink:href="#ab"/><use transform="matrix(0.07222222222222222,0,0,0.07222222222222222,34.666666666666664,0)" xlink:href="#at"/><use transform="matrix(0.07222222222222222,0,0,0.07222222222222222,52.86666666666666,0)" xlink:href="#au"/><use transform="matrix(0.07222222222222222,0,0,0.07222222222222222,68.68333333333332,0)" xlink:href="#av"/><use transform="matrix(0.07222222222222222,0,0,0.07222222222222222,86.01666666666665,0)" xlink:href="#ae"/><use transform="matrix(0.07222222222222222,0,0,0.07222222222222222,99.01666666666665,0)" xlink:href="#aw"/><use transform="matrix(0.07222222222222222,0,0,0.07222222222222222,113.4611111111111,0)" xlink:href="#ax"/><use transform="matrix(0.07222222222222222,0,0,0.07222222222222222,122.05555555555554,0)" xlink:href="#aq"/><use transform="matrix(0.07222222222222222,0,0,0.07222222222222222,136.5,0)" xlink:href="#ai"/></g><path d="M39-185c1-48 36-66 85-66 42 0 74 18 74 59 0 38-25 57-56 64 23 7 40 22 40 52 0 55-39 80-94 80C40 4 10-17 9-63c-1-44 31-60 63-71-20-7-33-25-33-51zm31 3c0 26 17 39 46 39 34 0 48-18 49-48 0-25-18-36-45-36-32 0-50 15-50 45zm79 105c0-29-19-41-50-41-37 0-57 20-57 55 0 29 19 42 49 42 36 0 58-19 58-56" id="ay"/><path d="M40-53c7 41 73 38 88 5 14-18 25-43 30-72-13 20-31 35-60 35-44 0-69-27-69-70 0-57 32-96 91-96 58 0 76 44 72 106C186-56 125 37 35-9c-12-6-19-20-23-36zm62-57c67 0 87-116 17-116-39 0-58 29-58 71 1 27 12 45 41 45" id="az"/><g id="A"><use transform="matrix(0.07222222222222222,0,0,0.07222222222222222,0,0)" xlink:href="#al"/><use transform="matrix(0.07222222222222222,0,0,0.07222222222222222,14.444444444444443,0)" xlink:href="#ak"/><use transform="matrix(0.07222222222222222,0,0,0.07222222222222222,21.666666666666664,0)" xlink:href="#ay"/><use transform="matrix(0.07222222222222222,0,0,0.07222222222222222,36.11111111111111,0)" xlink:href="#az"/></g><g id="B"><use transform="matrix(0.07222222222222222,0,0,0.07222222222222222,0,0)" xlink:href="#al"/><use transform="matrix(0.07222222222222222,0,0,0.07222222222222222,14.444444444444443,0)" xlink:href="#ak"/><use transform="matrix(0.07222222222222222,0,0,0.07222222222222222,21.666666666666664,0)" xlink:href="#al"/></g><use transform="matrix(0.07222222222222222,0,0,0.07222222222222222,0,0)" xlink:href="#al" id="C"/><g id="D"><use transform="matrix(0.07222222222222222,0,0,0.07222222222222222,0,0)" xlink:href="#aj"/><use transform="matrix(0.07222222222222222,0,0,0.07222222222222222,14.444444444444443,0)" xlink:href="#ak"/><use transform="matrix(0.07222222222222222,0,0,0.07222222222222222,21.666666666666664,0)" xlink:href="#al"/></g><g id="E"><use transform="matrix(0.07222222222222222,0,0,0.07222222222222222,0,0)" xlink:href="#ag"/><use transform="matrix(0.07222222222222222,0,0,0.07222222222222222,21.59444444444444,0)" xlink:href="#ad"/><use transform="matrix(0.07222222222222222,0,0,0.07222222222222222,36.038888888888884,0)" xlink:href="#af"/><use transform="matrix(0.07222222222222222,0,0,0.07222222222222222,43.261111111111106,0)" xlink:href="#ae"/><use transform="matrix(0.07222222222222222,0,0,0.07222222222222222,56.261111111111106,0)" xlink:href="#ah"/><use transform="matrix(0.07222222222222222,0,0,0.07222222222222222,70.70555555555555,0)" xlink:href="#ai"/></g><path d="M206-222l-58 71C115-108 89-62 76 0H43c20-96 77-159 130-221H37l5-27h169" id="aA"/><path d="M151-85c6-55-69-56-94-29H26l34-134h141l-5 27H84l-20 79c41-34 127-11 121 53C199 13 30 38 8-54l29-8C52 0 159-13 151-85" id="aB"/><g id="F"><use transform="matrix(0.07222222222222222,0,0,0.07222222222222222,0,0)" xlink:href="#al"/><use transform="matrix(0.07222222222222222,0,0,0.07222222222222222,14.444444444444443,0)" xlink:href="#ak"/><use transform="matrix(0.07222222222222222,0,0,0.07222222222222222,21.666666666666664,0)" xlink:href="#aA"/><use transform="matrix(0.07222222222222222,0,0,0.07222222222222222,36.11111111111111,0)" xlink:href="#aB"/></g></defs></g></svg>
