<?xml version="1.0" encoding="UTF-8" standalone="no"?>
<svg xmlns:rdf="http://www.w3.org/1999/02/22-rdf-syntax-ns#" xmlns="http://www.w3.org/2000/svg" height="32" width="32" version="1.1" xmlns:cc="http://creativecommons.org/ns#" xmlns:dc="http://purl.org/dc/elements/1.1/">
<g transform="translate(0 -1020.4)">
<rect height="29" width="29" stroke="#000" y="1021.9" x="1.5" stroke-width="1.5" fill="none"/>
<g>
<path style="color-rendering:auto;text-decoration-color:#000000;color:#000000;isolation:auto;mix-blend-mode:normal;shape-rendering:auto;solid-color:#000000;block-progression:tb;text-decoration-line:none;text-decoration-style:solid;image-rendering:auto;white-space:normal;text-indent:0;text-transform:none" d="m18.873 1025.5c-0.46624 0.4583-0.50102 1.254-0.03145 1.7236 0.2118 0.2118 0.33925 0.2399 0.55969 0.3463 0.2113 0.1019 0.46435 0.2087 0.72173 0.3056-0.31273 0.2396-0.62336 0.477-1.0718 0.8291-0.63491 0.4985-1.3193 1.0246-1.4373 1.1087a0.55598 0.55598 0 0 0 -0.04004 0.03c-0.71117 0.6127-0.61195 1.676 0.000778 2.2366l1.2492 1.2491c0.75385 0.7538 1.1791 1.1741 1.4902 1.4381 0.31115 0.2639 0.61799 0.4064 0.86147 0.4315 0.12949 0.013 0.33505 0.019 0.53667-0.059 0.20161-0.078 0.35837-0.2072 0.52208-0.3716 0.32798-0.328 0.73584-0.8586 1.5148-1.8681 0.2306-0.2989 0.42154-0.5438 0.60652-0.7815 0.17248 0.5106 0.33473 0.9165 0.62422 1.2123 0.30878 0.3155 0.83143 0.425 1.2315 0.3071 0.1029-0.03 0.35972-0.1457 0.50828-0.3301 0.14841-0.1846 0.23842-0.3869 0.36926-0.7164 0.26172-0.659 0.6564-1.8514 1.4388-4.2135 0.8483-2.561 1.2809-3.8593 1.4327-4.6497 0.07585-0.3951 0.1168-0.7101-0.06528-1.0403-0.18204-0.3302-0.51386-0.4269-0.70326-0.4776-0.15196-0.041-0.1961-0.023-0.25185-0.019-0.05575 0.01-0.10596 0.013-0.16047 0.022-0.10903 0.019-0.2342 0.048-0.38386 0.084-0.29937 0.073-0.69025 0.1805-1.1486 0.3133-0.91671 0.2655-2.0977 0.6314-3.2777 1.0111-1.1799 0.3798-2.3576 0.7732-3.2684 1.0957-0.45542 0.1612-0.84332 0.3041-1.1371 0.4215-0.14687 0.059-0.27044 0.1098-0.37312 0.1581-0.1026 0.049-0.15204 0.04-0.31558 0.1989a0.55598 0.55598 0 0 0 -0.0023 0zm0.78006 0.7954c-0.06544 0.066-0.04858 0.038 0.0114 0.01 0.06862-0.032 0.17692-0.078 0.31171-0.132 0.26957-0.1077 0.64822-0.2478 1.0956-0.4062 0.89478-0.3168 2.0664-0.7084 3.2384-1.0856 1.1721-0.3773 2.3456-0.7398 3.2454-1.0005 0.44991-0.1303 0.8319-0.2357 1.104-0.3025 0.10608-0.026 0.17782-0.041 0.24416-0.054-0.0025 0.02 0.002-0.01-0.03531 0.1935-0.11751 0.6118-0.54793 1.9502-1.3958 4.5099-0.7823 2.3617-1.1844 3.5683-1.4165 4.1528-0.10448 0.2631-0.1642 0.358-0.18195 0.3862-0.05432 0.025-0.03738 0.05-0.09984-0.014-0.07665-0.078-0.24202-0.3637-0.40537-0.8615-0.08344-0.2542-0.16544-0.4775-0.23952-0.6494-0.03708-0.086-0.06901-0.1557-0.11597-0.2342-0.02356-0.04-0.04051-0.079-0.11977-0.1552-0.03966-0.038-0.09379-0.097-0.24184-0.1405-0.14806-0.043-0.43066 0.017-0.55664 0.1436a0.55598 0.55598 0 0 0 -0.000778 0c-0.07239 0.073-0.05056 0.058-0.07202 0.084-0.01989 0.027-0.04871 0.059-0.08154 0.1011-0.06567 0.083-0.15454 0.1962-0.26173 0.3341-0.21477 0.2753-0.50209 0.6445-0.80999 1.0434-0.7779 1.0081-1.2035 1.5435-1.4227 1.7636-0.1096 0.1101-0.15455 0.127-0.13724 0.1208 0.01691-0.01 0.05494-0.01-0.02073-0.011-0.06281-0.01-0.01159 0.034-0.25491-0.172-0.24344-0.2065-0.67228-0.6263-1.4235-1.3774l-1.2668-1.2668a0.55598 0.55598 0 0 0 -0.01846 -0.017c-0.16669-0.1525-0.22278-0.3995-0.02608-0.5711 0.22646-0.1636 0.81646-0.6203 1.4396-1.1095 0.63514-0.4986 1.3305-1.0363 1.5002-1.1609l0.35625-0.261a0.55598 0.55598 0 0 0 -0.13513 -0.969l-0.91747-0.3417c-0.23563-0.088-0.47489-0.1903-0.65798-0.2786-0.18309-0.089-0.36073-0.2349-0.25644-0.1306-0.04776-0.048-0.05331-0.063 0.02531-0.142zm9.2693-3.0704c-0.0103-0.019-0.0076 0.065-0.01093 0.061h-0.007c0.14966 0.04 0.06753 0.03 0.01754-0.061z"/>
<path style="color-rendering:auto;text-decoration-color:#000000;color:#000000;isolation:auto;mix-blend-mode:normal;shape-rendering:auto;solid-color:#000000;block-progression:tb;text-decoration-line:none;text-decoration-style:solid;image-rendering:auto;white-space:normal;text-indent:0;text-transform:none" d="m12.887 1025.5c0.46624 0.4583 0.50101 1.254 0.03145 1.7236-0.2118 0.2118-0.33925 0.2399-0.55969 0.3463-0.2113 0.1019-0.46435 0.2087-0.72173 0.3056 0.31273 0.2396 0.62336 0.477 1.0718 0.8291 0.63491 0.4985 1.3193 1.0246 1.4373 1.1087a0.55598 0.55598 0 0 1 0.04004 0.03c0.71117 0.6127 0.61195 1.676-0.000778 2.2366l-1.2492 1.2491c-0.75385 0.7538-1.1791 1.1741-1.4902 1.4381-0.31115 0.2639-0.61799 0.4064-0.86147 0.4315-0.12949 0.013-0.33505 0.019-0.53666-0.059s-0.35837-0.2072-0.52208-0.3716c-0.32798-0.328-0.73584-0.8586-1.5148-1.8681-0.2306-0.2989-0.42154-0.5438-0.60652-0.7815-0.17248 0.5106-0.33473 0.9165-0.62422 1.2123-0.30878 0.3155-0.83143 0.425-1.2315 0.3071-0.1029-0.03-0.35972-0.1457-0.50828-0.3301-0.14841-0.1846-0.23842-0.3869-0.36926-0.7164-0.26172-0.659-0.6564-1.8514-1.4388-4.2135-0.8483-2.561-1.2809-3.8593-1.4327-4.6497-0.07586-0.3951-0.1168-0.7101 0.06528-1.0403 0.18204-0.3302 0.51386-0.4269 0.70326-0.4776 0.15196-0.041 0.1961-0.023 0.25185-0.019 0.05575 0.01 0.10596 0.013 0.16047 0.022 0.10903 0.019 0.2342 0.048 0.38386 0.084 0.29937 0.073 0.69025 0.1805 1.1486 0.3133 0.91671 0.2655 2.0977 0.6314 3.2777 1.0111 1.1799 0.3798 2.3576 0.7732 3.2684 1.0957 0.45542 0.1612 0.84332 0.3041 1.1371 0.4215 0.14687 0.059 0.27044 0.1098 0.37312 0.1581 0.1026 0.049 0.15205 0.04 0.31558 0.1989a0.55598 0.55598 0 0 1 0.0023 0zm-0.78006 0.7954c0.06544 0.066 0.04858 0.038-0.0114 0.01-0.06862-0.032-0.17692-0.078-0.31171-0.132-0.26957-0.1077-0.64822-0.2478-1.0956-0.4062-0.89478-0.3168-2.0664-0.7084-3.2384-1.0856-1.1721-0.3773-2.3456-0.7398-3.2454-1.0005-0.44991-0.1303-0.8319-0.2357-1.104-0.3025-0.10608-0.026-0.17782-0.041-0.24416-0.054 0.0025 0.02-0.0019-0.01 0.03531 0.1935 0.11751 0.6118 0.54793 1.9502 1.3958 4.5099 0.7823 2.3617 1.1844 3.5683 1.4165 4.1528 0.10448 0.2631 0.1642 0.358 0.18195 0.3862 0.05432 0.025 0.03738 0.05 0.09984-0.014 0.07665-0.078 0.24202-0.3637 0.40537-0.8615 0.08344-0.2542 0.16544-0.4775 0.23952-0.6494 0.03708-0.086 0.06901-0.1557 0.11597-0.2342 0.02356-0.04 0.04051-0.079 0.11977-0.1552 0.03966-0.038 0.09379-0.097 0.24184-0.1405 0.14805-0.043 0.43066 0.017 0.55664 0.1436a0.55598 0.55598 0 0 1 0.000779 0c0.07239 0.073 0.05056 0.058 0.07202 0.084 0.01989 0.027 0.04871 0.059 0.08153 0.1011 0.06567 0.083 0.15454 0.1962 0.26173 0.3341 0.21477 0.2753 0.50209 0.6445 0.80999 1.0434 0.7779 1.0081 1.2035 1.5435 1.4227 1.7636 0.1096 0.1101 0.15455 0.127 0.13724 0.1208-0.01691-0.01-0.05494-0.01 0.02073-0.011 0.06281-0.01 0.01159 0.034 0.25491-0.172 0.24344-0.2065 0.67228-0.6263 1.4235-1.3774l1.2668-1.2668a0.55598 0.55598 0 0 1 0.01846 -0.017c0.16668-0.1525 0.22278-0.3995 0.02608-0.5711-0.22646-0.1636-0.81646-0.6203-1.4396-1.1095-0.63514-0.4986-1.3305-1.0363-1.5002-1.1609l-0.35625-0.261a0.55598 0.55598 0 0 1 0.13513 -0.969l0.91747-0.3417c0.23563-0.088 0.47489-0.1903 0.65798-0.2786 0.18309-0.089 0.36073-0.2349 0.25644-0.1306 0.04776-0.048 0.05331-0.063-0.02531-0.142zm-9.2693-3.0704c0.0103-0.019 0.0076 0.065 0.01093 0.061h0.007c-0.14966 0.04-0.06753 0.03-0.01754-0.061z"/>
<path style="color-rendering:auto;text-decoration-color:#000000;color:#000000;isolation:auto;mix-blend-mode:normal;shape-rendering:auto;solid-color:#000000;block-progression:tb;text-decoration-line:none;text-decoration-style:solid;image-rendering:auto;white-space:normal;text-indent:0;text-transform:none" d="m18.873 1047.2c-0.46624-0.4583-0.50102-1.254-0.03145-1.7236 0.2118-0.2118 0.33925-0.2399 0.55969-0.3463 0.2113-0.1019 0.46435-0.2087 0.72173-0.3056-0.31273-0.2396-0.62336-0.4771-1.0718-0.8291-0.63491-0.4985-1.3193-1.0246-1.4373-1.1087a0.55598 0.55598 0 0 1 -0.04004 -0.031c-0.71117-0.6127-0.61195-1.676 0.000778-2.2366l1.2492-1.2491c0.75385-0.7538 1.1791-1.1741 1.4902-1.4381 0.31115-0.2639 0.61799-0.4063 0.86147-0.4315 0.12949-0.013 0.33505-0.019 0.53667 0.059 0.20161 0.079 0.35837 0.2072 0.52208 0.3716 0.32798 0.328 0.73584 0.8586 1.5148 1.8681 0.2306 0.2989 0.42154 0.5438 0.60652 0.7815 0.17248-0.5106 0.33473-0.9165 0.62422-1.2123 0.30878-0.3155 0.83143-0.425 1.2315-0.3071 0.1029 0.03 0.35972 0.1457 0.50828 0.3302 0.14841 0.1845 0.23842 0.3868 0.36926 0.7163 0.26172 0.659 0.6564 1.8514 1.4388 4.2135 0.8483 2.5611 1.2809 3.8593 1.4327 4.6497 0.07585 0.3952 0.1168 0.7101-0.06528 1.0403-0.18204 0.3302-0.51386 0.4269-0.70326 0.4776-0.15196 0.041-0.1961 0.023-0.25185 0.019-0.05575-0.01-0.10596-0.012-0.16047-0.022-0.10903-0.02-0.2342-0.048-0.38386-0.084-0.29937-0.073-0.69025-0.1805-1.1486-0.3132-0.91671-0.2656-2.0977-0.6314-3.2777-1.0112-1.1799-0.3798-2.3576-0.7732-3.2684-1.0957-0.45542-0.1612-0.84332-0.3041-1.1371-0.4215-0.14687-0.059-0.27044-0.1098-0.37312-0.1581-0.1026-0.049-0.15204-0.04-0.31558-0.1989a0.55598 0.55598 0 0 1 -0.0023 0zm0.78006-0.7954c-0.06544-0.065-0.04858-0.038 0.0114-0.01 0.06862 0.032 0.17692 0.078 0.31171 0.132 0.26957 0.1076 0.64822 0.2478 1.0956 0.4061 0.89478 0.3169 2.0664 0.7085 3.2384 1.0857 1.1721 0.3773 2.3456 0.7398 3.2454 1.0005 0.44991 0.1303 0.8319 0.2357 1.104 0.3025 0.10608 0.026 0.17782 0.041 0.24416 0.054-0.0025-0.02 0.002 0.01-0.03531-0.1935-0.11751-0.6118-0.54793-1.9502-1.3958-4.5099-0.7823-2.3617-1.1844-3.5683-1.4165-4.1528-0.10448-0.2631-0.1642-0.358-0.18195-0.3862-0.05432-0.025-0.03738-0.05-0.09984 0.014-0.07665 0.078-0.24202 0.3636-0.40537 0.8614-0.08344 0.2542-0.16544 0.4775-0.23952 0.6494-0.03708 0.086-0.06901 0.1557-0.11597 0.2343-0.02356 0.039-0.04051 0.079-0.11977 0.1551-0.03966 0.038-0.09379 0.098-0.24184 0.1405-0.14806 0.042-0.43066-0.017-0.55664-0.1436a0.55598 0.55598 0 0 1 -0.000778 0c-0.07239-0.073-0.05056-0.059-0.07202-0.084-0.01989-0.027-0.04871-0.059-0.08154-0.1011-0.06567-0.083-0.15454-0.1962-0.26173-0.3341-0.21477-0.2753-0.50209-0.6445-0.80999-1.0434-0.7779-1.0081-1.2035-1.5435-1.4227-1.7636-0.1096-0.1101-0.15455-0.127-0.13724-0.1208 0.01691 0.01 0.05494 0.01-0.02073 0.012-0.06281 0.01-0.01159-0.034-0.25491 0.172-0.24344 0.2065-0.67228 0.6263-1.4235 1.3774l-1.2668 1.2668a0.55598 0.55598 0 0 1 -0.01846 0.017c-0.16669 0.1525-0.22278 0.3995-0.02608 0.5711 0.22646 0.1636 0.81646 0.6203 1.4396 1.1095 0.63514 0.4986 1.3305 1.0363 1.5002 1.1609l0.35625 0.261a0.55598 0.55598 0 0 1 -0.13513 0.969l-0.91747 0.3417c-0.23563 0.088-0.47489 0.1903-0.65798 0.2786-0.18309 0.089-0.36073 0.2349-0.25644 0.1306-0.04776 0.048-0.05331 0.063 0.02531 0.142zm9.2693 3.0704c-0.0103 0.019-0.0076-0.065-0.01093-0.061h-0.007c0.14966-0.04 0.06753-0.03 0.01754 0.061z"/>
<path style="color-rendering:auto;text-decoration-color:#000000;color:#000000;isolation:auto;mix-blend-mode:normal;shape-rendering:auto;solid-color:#000000;block-progression:tb;text-decoration-line:none;text-decoration-style:solid;image-rendering:auto;white-space:normal;text-indent:0;text-transform:none" d="m12.887 1047.2c0.46624-0.4583 0.50101-1.254 0.03145-1.7236-0.2118-0.2118-0.33925-0.2399-0.55969-0.3463-0.2113-0.1019-0.46435-0.2087-0.72173-0.3056 0.31273-0.2396 0.62336-0.4771 1.0718-0.8291 0.63491-0.4985 1.3193-1.0246 1.4373-1.1087a0.55598 0.55598 0 0 0 0.04004 -0.031c0.71117-0.6127 0.61195-1.676-0.000778-2.2366l-1.2492-1.2491c-0.75385-0.7538-1.1791-1.1741-1.4902-1.4381-0.31115-0.2639-0.61799-0.4063-0.86147-0.4315-0.12949-0.013-0.33505-0.019-0.53666 0.059-0.20161 0.079-0.35837 0.2072-0.52208 0.3716-0.32798 0.328-0.73584 0.8586-1.5148 1.8681-0.2306 0.2989-0.42154 0.5438-0.60652 0.7815-0.17248-0.5106-0.33473-0.9165-0.62422-1.2123-0.30878-0.3155-0.83143-0.425-1.2315-0.3071-0.1029 0.03-0.35972 0.1457-0.50828 0.3302-0.14841 0.1845-0.23842 0.3868-0.36926 0.7163-0.26172 0.659-0.6564 1.8514-1.4388 4.2135-0.8483 2.5611-1.2809 3.8593-1.4327 4.6497-0.07586 0.3952-0.1168 0.7101 0.06528 1.0403 0.18204 0.3302 0.51386 0.4269 0.70326 0.4776 0.15196 0.041 0.1961 0.023 0.25185 0.019 0.05575-0.01 0.10596-0.012 0.16047-0.022 0.10903-0.02 0.2342-0.048 0.38386-0.084 0.29937-0.073 0.69025-0.1805 1.1486-0.3132 0.91671-0.2656 2.0977-0.6314 3.2777-1.0112 1.1799-0.3798 2.3576-0.7732 3.2684-1.0957 0.45542-0.1612 0.84332-0.3041 1.1371-0.4215 0.14687-0.059 0.27044-0.1098 0.37312-0.1581 0.1026-0.049 0.15205-0.04 0.31558-0.1989a0.55598 0.55598 0 0 0 0.0023 0zm-0.78006-0.7954c0.06544-0.065 0.04858-0.038-0.0114-0.01-0.06862 0.032-0.17692 0.078-0.31171 0.132-0.26957 0.1076-0.64822 0.2478-1.0956 0.4061-0.89478 0.3169-2.0664 0.7085-3.2384 1.0857-1.1721 0.3773-2.3456 0.7398-3.2454 1.0005-0.44991 0.1303-0.8319 0.2357-1.104 0.3025-0.10608 0.026-0.17782 0.041-0.24416 0.054 0.0025-0.02-0.0019 0.01 0.03531-0.1935 0.11751-0.6118 0.54793-1.9502 1.3958-4.5099 0.7823-2.3617 1.1844-3.5683 1.4165-4.1528 0.10448-0.2631 0.1642-0.358 0.18195-0.3862 0.05432-0.025 0.03738-0.05 0.09984 0.014 0.07665 0.078 0.24202 0.3636 0.40537 0.8614 0.08344 0.2542 0.16544 0.4775 0.23952 0.6494 0.03708 0.086 0.06901 0.1557 0.11597 0.2343 0.02356 0.039 0.04051 0.079 0.11977 0.1551 0.03966 0.038 0.09379 0.098 0.24184 0.1405 0.14805 0.042 0.43066-0.017 0.55664-0.1436a0.55598 0.55598 0 0 0 0.000779 0c0.07239-0.073 0.05056-0.059 0.07202-0.084 0.01989-0.027 0.04871-0.059 0.08153-0.1011 0.06567-0.083 0.15454-0.1962 0.26173-0.3341 0.21477-0.2753 0.50209-0.6445 0.80999-1.0434 0.7779-1.0081 1.2035-1.5435 1.4227-1.7636 0.1096-0.1101 0.15455-0.127 0.13724-0.1208-0.01691 0.01-0.05494 0.01 0.02073 0.012 0.06281 0.01 0.01159-0.034 0.25491 0.172 0.24344 0.2065 0.67228 0.6263 1.4235 1.3774l1.2668 1.2668a0.55598 0.55598 0 0 0 0.01846 0.017c0.16668 0.1525 0.22278 0.3995 0.02608 0.5711-0.22646 0.1636-0.81646 0.6203-1.4396 1.1095-0.63514 0.4986-1.3305 1.0363-1.5002 1.1609l-0.35625 0.261a0.55598 0.55598 0 0 0 0.13513 0.969l0.91747 0.3417c0.23563 0.088 0.47489 0.1903 0.65798 0.2786 0.18309 0.089 0.36073 0.2349 0.25644 0.1306 0.04776 0.048 0.05331 0.063-0.02531 0.142zm-9.2693 3.0704c0.0103 0.019 0.0076-0.065 0.01093-0.061h0.007c-0.14966-0.04-0.06753-0.03-0.01754 0.061z"/>
</g>
</g>
</svg>
