<?xml version="1.0" encoding="UTF-8" standalone="no"?>
<svg xmlns:rdf="http://www.w3.org/1999/02/22-rdf-syntax-ns#" xmlns="http://www.w3.org/2000/svg" shape-rendering="crispEdges" height="32" width="32" version="1.1" xmlns:cc="http://creativecommons.org/ns#" xmlns:dc="http://purl.org/dc/elements/1.1/">
<path style="color-rendering:auto;text-decoration-color:#000000;color:#000000;isolation:auto;mix-blend-mode:normal;shape-rendering:auto;solid-color:#000000;block-progression:tb;text-decoration-line:none;text-decoration-style:solid;image-rendering:auto;white-space:normal;text-indent:0;text-transform:none" d="m5.7051 0.47852a2.4002 2.4002 0 0 0 -2.291 2.3828l-0.0235 3.3399 6.5235 0.0136-1.9043-4.3086a2.4002 2.4002 0 0 0 -2.3047 -1.4277zm20.186 0a2.4002 2.4002 0 0 0 -2.108 1.3926l-2.015 4.3711 6.593 0.0137v-3.3789a2.4002 2.4002 0 0 0 -2.47 -2.3985zm-22.534 10.521l-0.0566 8.098a2.4004 2.4004 0 0 1 0.7207 -0.112h4.0801l0.0332-4.918 2.1742 4.918h5.248l-3.52-7.966-8.6796-0.02zm16.198 0.035l-3.666 7.951h5.285l2.388-5.177v5.177h4.799v-7.931l-8.806-0.02zm-16.287 12.629l-0.0313 4.604a2.4004 2.4004 0 1 0 4.8008 0.033l0.0313-4.514h-4.0469a2.4004 2.4004 0 0 1 -0.7539 -0.123zm9.1624 0.123l1.047 2.369a2.4002 2.4002 0 0 0 4.375 0.035l1.109-2.404h-6.531zm11.132 0v4.408 0.088a2.4002 2.4002 0 1 0 4.799 0v-0.088-4.408h-4.799z" fill-rule="evenodd" fill="#333"/>
</svg>
